<?xml version="1.0" encoding="utf-8" standalone="no"?>
<!DOCTYPE svg PUBLIC "-//W3C//DTD SVG 1.1//EN"
  "http://www.w3.org/Graphics/SVG/1.1/DTD/svg11.dtd">
<svg xmlns:xlink="http://www.w3.org/1999/xlink" width="508.32pt" height="223.2pt" viewBox="0 0 508.32 223.2" xmlns="http://www.w3.org/2000/svg" version="1.1">
 <metadata>
  <rdf:RDF xmlns:dc="http://purl.org/dc/elements/1.1/" xmlns:cc="http://creativecommons.org/ns#" xmlns:rdf="http://www.w3.org/1999/02/22-rdf-syntax-ns#">
   <cc:Work>
    <dc:type rdf:resource="http://purl.org/dc/dcmitype/StillImage"/>
    <dc:date>2026-02-22T12:03:32.173054</dc:date>
    <dc:format>image/svg+xml</dc:format>
    <dc:creator>
     <cc:Agent>
      <dc:title>Matplotlib v3.10.0, https://matplotlib.org/</dc:title>
     </cc:Agent>
    </dc:creator>
   </cc:Work>
  </rdf:RDF>
 </metadata>
 <defs>
  <style type="text/css">*{stroke-linejoin: round; stroke-linecap: butt}</style>
 </defs>
 <g id="figure_1">
  <g id="patch_1">
   <path d="M 0 223.2 
L 508.32 223.2 
L 508.32 0 
L 0 0 
z
" style="fill: #ffffff"/>
  </g>
  <g id="axes_1">
   <g id="patch_2">
    <path d="M 41.727344 184.675938 
L 244.784219 184.675938 
L 244.784219 22.318125 
L 41.727344 22.318125 
z
" style="fill: #ffffff"/>
   </g>
   <g id="matplotlib.axis_1">
    <g id="xtick_1">
     <g id="line2d_1">
      <path d="M 61.753577 184.675938 
L 61.753577 22.318125 
" clip-path="url(#p3553cfb6c1)" style="fill: none; stroke-dasharray: 2.96,1.28; stroke-dashoffset: 0; stroke: #b0b0b0; stroke-opacity: 0.4; stroke-width: 0.8"/>
     </g>
     <g id="line2d_2">
      <defs>
       <path id="m9c07bc051f" d="M 0 0 
L 0 3.5 
" style="stroke: #000000; stroke-width: 0.8"/>
      </defs>
      <g>
       <use xlink:href="#m9c07bc051f" x="61.753577" y="184.675938" style="stroke: #000000; stroke-width: 0.8"/>
      </g>
     </g>
     <g id="text_1">
      <!-- 0.0 -->
      <g transform="translate(53.802014 199.274375) scale(0.1 -0.1)">
       <defs>
        <path id="DejaVuSerif-30" d="M 2034 219 
Q 2513 219 2750 744 
Q 2988 1269 2988 2328 
Q 2988 3391 2750 3916 
Q 2513 4441 2034 4441 
Q 1556 4441 1318 3916 
Q 1081 3391 1081 2328 
Q 1081 1269 1318 744 
Q 1556 219 2034 219 
z
M 2034 -91 
Q 1275 -91 848 546 
Q 422 1184 422 2328 
Q 422 3475 848 4112 
Q 1275 4750 2034 4750 
Q 2797 4750 3222 4112 
Q 3647 3475 3647 2328 
Q 3647 1184 3222 546 
Q 2797 -91 2034 -91 
z
" transform="scale(0.015625)"/>
        <path id="DejaVuSerif-2e" d="M 603 325 
Q 603 500 722 622 
Q 841 744 1019 744 
Q 1191 744 1312 622 
Q 1434 500 1434 325 
Q 1434 153 1312 31 
Q 1191 -91 1019 -91 
Q 841 -91 722 29 
Q 603 150 603 325 
z
" transform="scale(0.015625)"/>
       </defs>
       <use xlink:href="#DejaVuSerif-30"/>
       <use xlink:href="#DejaVuSerif-2e" transform="translate(63.623047 0)"/>
       <use xlink:href="#DejaVuSerif-30" transform="translate(95.410156 0)"/>
      </g>
     </g>
    </g>
    <g id="xtick_2">
     <g id="line2d_3">
      <path d="M 119.723716 184.675938 
L 119.723716 22.318125 
" clip-path="url(#p3553cfb6c1)" style="fill: none; stroke-dasharray: 2.96,1.28; stroke-dashoffset: 0; stroke: #b0b0b0; stroke-opacity: 0.4; stroke-width: 0.8"/>
     </g>
     <g id="line2d_4">
      <g>
       <use xlink:href="#m9c07bc051f" x="119.723716" y="184.675938" style="stroke: #000000; stroke-width: 0.8"/>
      </g>
     </g>
     <g id="text_2">
      <!-- 0.2 -->
      <g transform="translate(111.772153 199.274375) scale(0.1 -0.1)">
       <defs>
        <path id="DejaVuSerif-32" d="M 819 3553 
L 469 3553 
L 469 4384 
Q 803 4563 1142 4656 
Q 1481 4750 1806 4750 
Q 2534 4750 2956 4397 
Q 3378 4044 3378 3438 
Q 3378 2753 2422 1800 
Q 2347 1728 2309 1691 
L 1131 513 
L 3078 513 
L 3078 1088 
L 3444 1088 
L 3444 0 
L 434 0 
L 434 341 
L 1850 1753 
Q 2319 2222 2519 2614 
Q 2719 3006 2719 3438 
Q 2719 3909 2473 4175 
Q 2228 4441 1797 4441 
Q 1350 4441 1106 4219 
Q 863 3997 819 3553 
z
" transform="scale(0.015625)"/>
       </defs>
       <use xlink:href="#DejaVuSerif-30"/>
       <use xlink:href="#DejaVuSerif-2e" transform="translate(63.623047 0)"/>
       <use xlink:href="#DejaVuSerif-32" transform="translate(95.410156 0)"/>
      </g>
     </g>
    </g>
    <g id="xtick_3">
     <g id="line2d_5">
      <path d="M 177.693855 184.675938 
L 177.693855 22.318125 
" clip-path="url(#p3553cfb6c1)" style="fill: none; stroke-dasharray: 2.96,1.28; stroke-dashoffset: 0; stroke: #b0b0b0; stroke-opacity: 0.4; stroke-width: 0.8"/>
     </g>
     <g id="line2d_6">
      <g>
       <use xlink:href="#m9c07bc051f" x="177.693855" y="184.675938" style="stroke: #000000; stroke-width: 0.8"/>
      </g>
     </g>
     <g id="text_3">
      <!-- 0.4 -->
      <g transform="translate(169.742292 199.274375) scale(0.1 -0.1)">
       <defs>
        <path id="DejaVuSerif-34" d="M 2234 1581 
L 2234 4063 
L 641 1581 
L 2234 1581 
z
M 3609 0 
L 1484 0 
L 1484 331 
L 2234 331 
L 2234 1247 
L 197 1247 
L 197 1588 
L 2241 4750 
L 2859 4750 
L 2859 1581 
L 3750 1581 
L 3750 1247 
L 2859 1247 
L 2859 331 
L 3609 331 
L 3609 0 
z
" transform="scale(0.015625)"/>
       </defs>
       <use xlink:href="#DejaVuSerif-30"/>
       <use xlink:href="#DejaVuSerif-2e" transform="translate(63.623047 0)"/>
       <use xlink:href="#DejaVuSerif-34" transform="translate(95.410156 0)"/>
      </g>
     </g>
    </g>
    <g id="xtick_4">
     <g id="line2d_7">
      <path d="M 235.663994 184.675938 
L 235.663994 22.318125 
" clip-path="url(#p3553cfb6c1)" style="fill: none; stroke-dasharray: 2.96,1.28; stroke-dashoffset: 0; stroke: #b0b0b0; stroke-opacity: 0.4; stroke-width: 0.8"/>
     </g>
     <g id="line2d_8">
      <g>
       <use xlink:href="#m9c07bc051f" x="235.663994" y="184.675938" style="stroke: #000000; stroke-width: 0.8"/>
      </g>
     </g>
     <g id="text_4">
      <!-- 0.6 -->
      <g transform="translate(227.712431 199.274375) scale(0.1 -0.1)">
       <defs>
        <path id="DejaVuSerif-36" d="M 2094 219 
Q 2534 219 2771 542 
Q 3009 866 3009 1472 
Q 3009 2078 2771 2401 
Q 2534 2725 2094 2725 
Q 1647 2725 1412 2412 
Q 1178 2100 1178 1509 
Q 1178 888 1415 553 
Q 1653 219 2094 219 
z
M 1075 2569 
Q 1288 2803 1556 2918 
Q 1825 3034 2163 3034 
Q 2859 3034 3264 2615 
Q 3669 2197 3669 1472 
Q 3669 763 3233 336 
Q 2797 -91 2069 -91 
Q 1278 -91 853 498 
Q 428 1088 428 2181 
Q 428 3406 931 4078 
Q 1434 4750 2350 4750 
Q 2597 4750 2869 4703 
Q 3141 4656 3425 4563 
L 3425 3794 
L 3072 3794 
Q 3034 4109 2831 4275 
Q 2628 4441 2284 4441 
Q 1678 4441 1381 3981 
Q 1084 3522 1075 2569 
z
" transform="scale(0.015625)"/>
       </defs>
       <use xlink:href="#DejaVuSerif-30"/>
       <use xlink:href="#DejaVuSerif-2e" transform="translate(63.623047 0)"/>
       <use xlink:href="#DejaVuSerif-36" transform="translate(95.410156 0)"/>
      </g>
     </g>
    </g>
    <g id="text_5">
     <!-- Pressure $P_{DF}$ (MPa) -->
     <g transform="translate(89.520781 213.712344) scale(0.11 -0.11)">
      <defs>
       <path id="DejaVuSerif-50" d="M 1581 2375 
L 2406 2375 
Q 2872 2375 3115 2626 
Q 3359 2878 3359 3353 
Q 3359 3831 3115 4081 
Q 2872 4331 2406 4331 
L 1581 4331 
L 1581 2375 
z
M 353 0 
L 353 331 
L 947 331 
L 947 4331 
L 353 4331 
L 353 4666 
L 2559 4666 
Q 3259 4666 3668 4311 
Q 4078 3956 4078 3353 
Q 4078 2753 3668 2397 
Q 3259 2041 2559 2041 
L 1581 2041 
L 1581 331 
L 2303 331 
L 2303 0 
L 353 0 
z
" transform="scale(0.015625)"/>
       <path id="DejaVuSerif-72" d="M 3059 3328 
L 3059 2497 
L 2728 2497 
Q 2713 2744 2591 2866 
Q 2469 2988 2234 2988 
Q 1809 2988 1582 2694 
Q 1356 2400 1356 1850 
L 1356 331 
L 2022 331 
L 2022 0 
L 263 0 
L 263 331 
L 781 331 
L 781 2994 
L 231 2994 
L 231 3322 
L 1356 3322 
L 1356 2731 
Q 1525 3078 1790 3245 
Q 2056 3413 2438 3413 
Q 2578 3413 2733 3391 
Q 2888 3369 3059 3328 
z
" transform="scale(0.015625)"/>
       <path id="DejaVuSerif-65" d="M 3469 1600 
L 991 1600 
L 991 1575 
Q 991 903 1244 561 
Q 1497 219 1991 219 
Q 2369 219 2611 417 
Q 2853 616 2950 1006 
L 3413 1006 
Q 3275 459 2904 184 
Q 2534 -91 1931 -91 
Q 1203 -91 761 389 
Q 319 869 319 1663 
Q 319 2450 753 2931 
Q 1188 3413 1894 3413 
Q 2647 3413 3050 2948 
Q 3453 2484 3469 1600 
z
M 2791 1931 
Q 2772 2513 2545 2808 
Q 2319 3103 1894 3103 
Q 1497 3103 1269 2806 
Q 1041 2509 991 1931 
L 2791 1931 
z
" transform="scale(0.015625)"/>
       <path id="DejaVuSerif-73" d="M 359 184 
L 359 959 
L 691 959 
Q 703 588 923 403 
Q 1144 219 1575 219 
Q 1963 219 2166 364 
Q 2369 509 2369 788 
Q 2369 1006 2220 1140 
Q 2072 1275 1594 1428 
L 1178 1569 
Q 750 1706 558 1912 
Q 366 2119 366 2438 
Q 366 2894 700 3153 
Q 1034 3413 1625 3413 
Q 1888 3413 2178 3344 
Q 2469 3275 2778 3144 
L 2778 2419 
L 2447 2419 
Q 2434 2741 2221 2922 
Q 2009 3103 1644 3103 
Q 1281 3103 1095 2975 
Q 909 2847 909 2591 
Q 909 2381 1050 2254 
Q 1191 2128 1613 1997 
L 2069 1856 
Q 2541 1709 2748 1489 
Q 2956 1269 2956 922 
Q 2956 450 2595 179 
Q 2234 -91 1600 -91 
Q 1278 -91 972 -22 
Q 666 47 359 184 
z
" transform="scale(0.015625)"/>
       <path id="DejaVuSerif-75" d="M 2266 3322 
L 3341 3322 
L 3341 331 
L 3884 331 
L 3884 0 
L 2766 0 
L 2766 588 
Q 2606 256 2353 82 
Q 2100 -91 1766 -91 
Q 1213 -91 952 223 
Q 691 538 691 1209 
L 691 2988 
L 172 2988 
L 172 3322 
L 1269 3322 
L 1269 1388 
Q 1269 781 1417 556 
Q 1566 331 1947 331 
Q 2347 331 2556 625 
Q 2766 919 2766 1478 
L 2766 2988 
L 2266 2988 
L 2266 3322 
z
" transform="scale(0.015625)"/>
       <path id="DejaVuSerif-20" transform="scale(0.015625)"/>
       <path id="DejaVuSans-Oblique-50" d="M 1081 4666 
L 2541 4666 
Q 3178 4666 3512 4369 
Q 3847 4072 3847 3500 
Q 3847 2731 3353 2303 
Q 2859 1875 1966 1875 
L 1172 1875 
L 806 0 
L 172 0 
L 1081 4666 
z
M 1613 4147 
L 1275 2394 
L 2069 2394 
Q 2606 2394 2893 2669 
Q 3181 2944 3181 3456 
Q 3181 3784 2986 3965 
Q 2791 4147 2438 4147 
L 1613 4147 
z
" transform="scale(0.015625)"/>
       <path id="DejaVuSans-Oblique-44" d="M 1081 4666 
L 2438 4666 
Q 3519 4666 4070 4208 
Q 4622 3750 4622 2847 
Q 4622 2250 4412 1698 
Q 4203 1147 3834 769 
Q 3463 381 2891 190 
Q 2319 0 1538 0 
L 172 0 
L 1081 4666 
z
M 1613 4147 
L 909 519 
L 1734 519 
Q 2794 519 3375 1128 
Q 3956 1738 3956 2847 
Q 3956 3519 3581 3833 
Q 3206 4147 2406 4147 
L 1613 4147 
z
" transform="scale(0.015625)"/>
       <path id="DejaVuSans-Oblique-46" d="M 1081 4666 
L 3756 4666 
L 3653 4134 
L 1606 4134 
L 1338 2759 
L 3188 2759 
L 3084 2228 
L 1234 2228 
L 800 0 
L 172 0 
L 1081 4666 
z
" transform="scale(0.015625)"/>
       <path id="DejaVuSerif-28" d="M 2041 -997 
Q 1281 -656 893 83 
Q 506 822 506 1931 
Q 506 3044 893 3783 
Q 1281 4522 2041 4863 
L 2041 4556 
Q 1559 4225 1350 3623 
Q 1141 3022 1141 1931 
Q 1141 844 1350 242 
Q 1559 -359 2041 -691 
L 2041 -997 
z
" transform="scale(0.015625)"/>
       <path id="DejaVuSerif-4d" d="M 353 0 
L 353 331 
L 947 331 
L 947 4331 
L 319 4331 
L 319 4666 
L 1678 4666 
L 3316 1344 
L 4953 4666 
L 6228 4666 
L 6228 4331 
L 5606 4331 
L 5606 331 
L 6203 331 
L 6203 0 
L 4378 0 
L 4378 331 
L 4972 331 
L 4972 3938 
L 3372 684 
L 2931 684 
L 1331 3938 
L 1331 331 
L 1925 331 
L 1925 0 
L 353 0 
z
" transform="scale(0.015625)"/>
       <path id="DejaVuSerif-61" d="M 2547 1044 
L 2547 1747 
L 1806 1747 
Q 1378 1747 1168 1562 
Q 959 1378 959 997 
Q 959 650 1171 447 
Q 1384 244 1747 244 
Q 2106 244 2326 466 
Q 2547 688 2547 1044 
z
M 3122 2075 
L 3122 331 
L 3634 331 
L 3634 0 
L 2547 0 
L 2547 359 
Q 2356 128 2106 18 
Q 1856 -91 1522 -91 
Q 969 -91 644 203 
Q 319 497 319 997 
Q 319 1513 691 1797 
Q 1063 2081 1741 2081 
L 2547 2081 
L 2547 2309 
Q 2547 2688 2317 2895 
Q 2088 3103 1672 3103 
Q 1328 3103 1125 2947 
Q 922 2791 872 2484 
L 575 2484 
L 575 3156 
Q 875 3284 1158 3348 
Q 1441 3413 1709 3413 
Q 2400 3413 2761 3070 
Q 3122 2728 3122 2075 
z
" transform="scale(0.015625)"/>
       <path id="DejaVuSerif-29" d="M 453 -997 
L 453 -691 
Q 934 -359 1145 242 
Q 1356 844 1356 1931 
Q 1356 3022 1145 3623 
Q 934 4225 453 4556 
L 453 4863 
Q 1216 4522 1603 3783 
Q 1991 3044 1991 1931 
Q 1991 822 1603 83 
Q 1216 -656 453 -997 
z
" transform="scale(0.015625)"/>
      </defs>
      <use xlink:href="#DejaVuSerif-50" transform="translate(0 0.015625)"/>
      <use xlink:href="#DejaVuSerif-72" transform="translate(67.285156 0.015625)"/>
      <use xlink:href="#DejaVuSerif-65" transform="translate(115.087891 0.015625)"/>
      <use xlink:href="#DejaVuSerif-73" transform="translate(174.267578 0.015625)"/>
      <use xlink:href="#DejaVuSerif-73" transform="translate(225.585938 0.015625)"/>
      <use xlink:href="#DejaVuSerif-75" transform="translate(276.904297 0.015625)"/>
      <use xlink:href="#DejaVuSerif-72" transform="translate(341.308594 0.015625)"/>
      <use xlink:href="#DejaVuSerif-65" transform="translate(389.111328 0.015625)"/>
      <use xlink:href="#DejaVuSerif-20" transform="translate(448.291016 0.015625)"/>
      <use xlink:href="#DejaVuSans-Oblique-50" transform="translate(480.078125 0.015625)"/>
      <use xlink:href="#DejaVuSans-Oblique-44" transform="translate(540.380859 -16.390625) scale(0.7)"/>
      <use xlink:href="#DejaVuSans-Oblique-46" transform="translate(594.282227 -16.390625) scale(0.7)"/>
      <use xlink:href="#DejaVuSerif-20" transform="translate(637.280273 0.015625)"/>
      <use xlink:href="#DejaVuSerif-28" transform="translate(669.067383 0.015625)"/>
      <use xlink:href="#DejaVuSerif-4d" transform="translate(708.081055 0.015625)"/>
      <use xlink:href="#DejaVuSerif-50" transform="translate(810.473633 0.015625)"/>
      <use xlink:href="#DejaVuSerif-61" transform="translate(877.758789 0.015625)"/>
      <use xlink:href="#DejaVuSerif-29" transform="translate(937.37793 0.015625)"/>
     </g>
    </g>
   </g>
   <g id="matplotlib.axis_2">
    <g id="ytick_1">
     <g id="line2d_9">
      <path d="M 41.727344 173.462014 
L 244.784219 173.462014 
" clip-path="url(#p3553cfb6c1)" style="fill: none; stroke-dasharray: 2.96,1.28; stroke-dashoffset: 0; stroke: #b0b0b0; stroke-opacity: 0.4; stroke-width: 0.8"/>
     </g>
     <g id="line2d_10">
      <defs>
       <path id="m2588414061" d="M 0 0 
L -3.5 0 
" style="stroke: #000000; stroke-width: 0.8"/>
      </defs>
      <g>
       <use xlink:href="#m2588414061" x="41.727344" y="173.462014" style="stroke: #000000; stroke-width: 0.8"/>
      </g>
     </g>
     <g id="text_6">
      <!-- 0 -->
      <g transform="translate(28.364844 177.261233) scale(0.1 -0.1)">
       <use xlink:href="#DejaVuSerif-30"/>
      </g>
     </g>
    </g>
    <g id="ytick_2">
     <g id="line2d_11">
      <path d="M 41.727344 134.73451 
L 244.784219 134.73451 
" clip-path="url(#p3553cfb6c1)" style="fill: none; stroke-dasharray: 2.96,1.28; stroke-dashoffset: 0; stroke: #b0b0b0; stroke-opacity: 0.4; stroke-width: 0.8"/>
     </g>
     <g id="line2d_12">
      <g>
       <use xlink:href="#m2588414061" x="41.727344" y="134.73451" style="stroke: #000000; stroke-width: 0.8"/>
      </g>
     </g>
     <g id="text_7">
      <!-- 20 -->
      <g transform="translate(22.002344 138.533729) scale(0.1 -0.1)">
       <use xlink:href="#DejaVuSerif-32"/>
       <use xlink:href="#DejaVuSerif-30" transform="translate(63.623047 0)"/>
      </g>
     </g>
    </g>
    <g id="ytick_3">
     <g id="line2d_13">
      <path d="M 41.727344 96.007005 
L 244.784219 96.007005 
" clip-path="url(#p3553cfb6c1)" style="fill: none; stroke-dasharray: 2.96,1.28; stroke-dashoffset: 0; stroke: #b0b0b0; stroke-opacity: 0.4; stroke-width: 0.8"/>
     </g>
     <g id="line2d_14">
      <g>
       <use xlink:href="#m2588414061" x="41.727344" y="96.007005" style="stroke: #000000; stroke-width: 0.8"/>
      </g>
     </g>
     <g id="text_8">
      <!-- 40 -->
      <g transform="translate(22.002344 99.806224) scale(0.1 -0.1)">
       <use xlink:href="#DejaVuSerif-34"/>
       <use xlink:href="#DejaVuSerif-30" transform="translate(63.623047 0)"/>
      </g>
     </g>
    </g>
    <g id="ytick_4">
     <g id="line2d_15">
      <path d="M 41.727344 57.279501 
L 244.784219 57.279501 
" clip-path="url(#p3553cfb6c1)" style="fill: none; stroke-dasharray: 2.96,1.28; stroke-dashoffset: 0; stroke: #b0b0b0; stroke-opacity: 0.4; stroke-width: 0.8"/>
     </g>
     <g id="line2d_16">
      <g>
       <use xlink:href="#m2588414061" x="41.727344" y="57.279501" style="stroke: #000000; stroke-width: 0.8"/>
      </g>
     </g>
     <g id="text_9">
      <!-- 60 -->
      <g transform="translate(22.002344 61.07872) scale(0.1 -0.1)">
       <use xlink:href="#DejaVuSerif-36"/>
       <use xlink:href="#DejaVuSerif-30" transform="translate(63.623047 0)"/>
      </g>
     </g>
    </g>
    <g id="text_10">
     <!-- Joint Angle (deg) -->
     <g transform="translate(15.558281 150.659531) rotate(-90) scale(0.11 -0.11)">
      <defs>
       <path id="DejaVuSerif-4a" d="M -538 -1119 
L -538 -384 
L -181 -384 
Q -172 -694 -34 -845 
Q 103 -997 378 -997 
Q 750 -997 897 -762 
Q 1044 -528 1044 153 
L 1044 4331 
L 319 4331 
L 319 4666 
L 2272 4666 
L 2272 4331 
L 1678 4331 
L 1678 128 
Q 1678 -644 1368 -987 
Q 1059 -1331 372 -1331 
Q 150 -1331 -79 -1278 
Q -309 -1225 -538 -1119 
z
" transform="scale(0.015625)"/>
       <path id="DejaVuSerif-6f" d="M 1925 219 
Q 2388 219 2623 584 
Q 2859 950 2859 1663 
Q 2859 2375 2623 2739 
Q 2388 3103 1925 3103 
Q 1463 3103 1227 2739 
Q 991 2375 991 1663 
Q 991 950 1228 584 
Q 1466 219 1925 219 
z
M 1925 -91 
Q 1200 -91 759 389 
Q 319 869 319 1663 
Q 319 2456 758 2934 
Q 1197 3413 1925 3413 
Q 2653 3413 3092 2934 
Q 3531 2456 3531 1663 
Q 3531 869 3092 389 
Q 2653 -91 1925 -91 
z
" transform="scale(0.015625)"/>
       <path id="DejaVuSerif-69" d="M 622 4353 
Q 622 4497 726 4603 
Q 831 4709 978 4709 
Q 1122 4709 1226 4603 
Q 1331 4497 1331 4353 
Q 1331 4206 1228 4103 
Q 1125 4000 978 4000 
Q 831 4000 726 4103 
Q 622 4206 622 4353 
z
M 1356 331 
L 1900 331 
L 1900 0 
L 231 0 
L 231 331 
L 781 331 
L 781 2988 
L 231 2988 
L 231 3322 
L 1356 3322 
L 1356 331 
z
" transform="scale(0.015625)"/>
       <path id="DejaVuSerif-6e" d="M 263 0 
L 263 331 
L 781 331 
L 781 2988 
L 231 2988 
L 231 3322 
L 1356 3322 
L 1356 2731 
Q 1516 3069 1770 3241 
Q 2025 3413 2363 3413 
Q 2913 3413 3172 3097 
Q 3431 2781 3431 2113 
L 3431 331 
L 3944 331 
L 3944 0 
L 2356 0 
L 2356 331 
L 2853 331 
L 2853 1931 
Q 2853 2541 2703 2767 
Q 2553 2994 2175 2994 
Q 1775 2994 1565 2701 
Q 1356 2409 1356 1850 
L 1356 331 
L 1856 331 
L 1856 0 
L 263 0 
z
" transform="scale(0.015625)"/>
       <path id="DejaVuSerif-74" d="M 691 2988 
L 184 2988 
L 184 3322 
L 691 3322 
L 691 4353 
L 1269 4353 
L 1269 3322 
L 2350 3322 
L 2350 2988 
L 1269 2988 
L 1269 878 
Q 1269 456 1350 337 
Q 1431 219 1650 219 
Q 1875 219 1978 351 
Q 2081 484 2088 781 
L 2522 781 
Q 2497 328 2275 118 
Q 2053 -91 1600 -91 
Q 1103 -91 897 129 
Q 691 350 691 878 
L 691 2988 
z
" transform="scale(0.015625)"/>
       <path id="DejaVuSerif-41" d="M 1281 1691 
L 2994 1691 
L 2138 3909 
L 1281 1691 
z
M -38 0 
L -38 331 
L 372 331 
L 2034 4666 
L 2559 4666 
L 4225 331 
L 4684 331 
L 4684 0 
L 2988 0 
L 2988 331 
L 3506 331 
L 3116 1356 
L 1153 1356 
L 763 331 
L 1275 331 
L 1275 0 
L -38 0 
z
" transform="scale(0.015625)"/>
       <path id="DejaVuSerif-67" d="M 3359 2988 
L 3359 72 
Q 3359 -644 2965 -1033 
Q 2572 -1422 1844 -1422 
Q 1516 -1422 1216 -1362 
Q 916 -1303 641 -1184 
L 641 -488 
L 941 -488 
Q 997 -813 1206 -963 
Q 1416 -1113 1806 -1113 
Q 2313 -1113 2548 -827 
Q 2784 -541 2784 72 
L 2784 519 
Q 2616 206 2355 57 
Q 2094 -91 1709 -91 
Q 1097 -91 708 395 
Q 319 881 319 1663 
Q 319 2444 706 2928 
Q 1094 3413 1709 3413 
Q 2094 3413 2355 3264 
Q 2616 3116 2784 2803 
L 2784 3322 
L 3909 3322 
L 3909 2988 
L 3359 2988 
z
M 2784 1825 
Q 2784 2422 2554 2737 
Q 2325 3053 1888 3053 
Q 1444 3053 1217 2703 
Q 991 2353 991 1663 
Q 991 975 1217 622 
Q 1444 269 1888 269 
Q 2325 269 2554 583 
Q 2784 897 2784 1497 
L 2784 1825 
z
" transform="scale(0.015625)"/>
       <path id="DejaVuSerif-6c" d="M 1313 331 
L 1856 331 
L 1856 0 
L 184 0 
L 184 331 
L 738 331 
L 738 4531 
L 184 4531 
L 184 4863 
L 1313 4863 
L 1313 331 
z
" transform="scale(0.015625)"/>
       <path id="DejaVuSerif-64" d="M 3359 331 
L 3909 331 
L 3909 0 
L 2784 0 
L 2784 519 
Q 2616 206 2355 57 
Q 2094 -91 1709 -91 
Q 1097 -91 708 395 
Q 319 881 319 1663 
Q 319 2444 706 2928 
Q 1094 3413 1709 3413 
Q 2094 3413 2355 3264 
Q 2616 3116 2784 2803 
L 2784 4531 
L 2241 4531 
L 2241 4863 
L 3359 4863 
L 3359 331 
z
M 2784 1497 
L 2784 1825 
Q 2784 2422 2554 2737 
Q 2325 3053 1888 3053 
Q 1444 3053 1217 2703 
Q 991 2353 991 1663 
Q 991 975 1217 622 
Q 1444 269 1888 269 
Q 2325 269 2554 583 
Q 2784 897 2784 1497 
z
" transform="scale(0.015625)"/>
      </defs>
      <use xlink:href="#DejaVuSerif-4a"/>
      <use xlink:href="#DejaVuSerif-6f" transform="translate(40.087891 0)"/>
      <use xlink:href="#DejaVuSerif-69" transform="translate(100.292969 0)"/>
      <use xlink:href="#DejaVuSerif-6e" transform="translate(132.275391 0)"/>
      <use xlink:href="#DejaVuSerif-74" transform="translate(196.679688 0)"/>
      <use xlink:href="#DejaVuSerif-20" transform="translate(236.865234 0)"/>
      <use xlink:href="#DejaVuSerif-41" transform="translate(268.652344 0)"/>
      <use xlink:href="#DejaVuSerif-6e" transform="translate(340.869141 0)"/>
      <use xlink:href="#DejaVuSerif-67" transform="translate(405.273438 0)"/>
      <use xlink:href="#DejaVuSerif-6c" transform="translate(469.287109 0)"/>
      <use xlink:href="#DejaVuSerif-65" transform="translate(501.269531 0)"/>
      <use xlink:href="#DejaVuSerif-20" transform="translate(560.449219 0)"/>
      <use xlink:href="#DejaVuSerif-28" transform="translate(592.236328 0)"/>
      <use xlink:href="#DejaVuSerif-64" transform="translate(631.25 0)"/>
      <use xlink:href="#DejaVuSerif-65" transform="translate(695.263672 0)"/>
      <use xlink:href="#DejaVuSerif-67" transform="translate(754.443359 0)"/>
      <use xlink:href="#DejaVuSerif-29" transform="translate(818.457031 0)"/>
     </g>
    </g>
   </g>
   <g id="line2d_17">
    <path d="M 59.939416 173.462014 
L 64.20432 173.462014 
L 54.296871 173.462014 
L 59.236786 173.462014 
L 57.984039 173.810562 
L 63.502477 173.810562 
L 56.09325 173.810562 
L 57.481265 173.810562 
L 57.664758 174.159109 
L 66.405824 174.159109 
L 55.747664 174.159109 
L 61.364381 174.159109 
L 60.849227 173.810562 
L 58.416541 173.810562 
L 73.531582 173.810562 
L 65.372073 173.810562 
L 65.706374 173.462014 
L 65.569924 173.462014 
L 59.0729 173.462014 
L 73.42827 173.462014 
L 71.565087 173.462014 
L 68.372786 173.113466 
L 75.953337 173.113466 
L 66.344347 173.113466 
L 73.752774 173.113466 
L 71.355287 172.764919 
L 71.612067 172.764919 
L 65.87379 172.764919 
L 75.126124 172.764919 
L 72.918628 172.764919 
L 70.262903 172.416371 
L 79.453704 172.416371 
L 66.378388 172.416371 
L 72.581427 172.416371 
L 76.986672 172.067824 
L 75.872625 172.067824 
L 73.098049 172.067824 
L 76.935593 172.067824 
L 75.667752 171.719276 
L 78.128608 171.719276 
L 74.731784 171.719276 
L 75.72651 171.719276 
L 79.132601 171.370729 
L 75.774554 171.370729 
L 79.328788 171.370729 
L 77.340822 171.719276 
L 74.570574 171.719276 
L 80.61418 171.719276 
L 76.499018 171.719276 
L 77.226991 171.370729 
L 81.203076 171.370729 
L 74.927377 171.370729 
L 78.269164 171.370729 
L 76.114857 171.022181 
L 75.304743 171.022181 
L 86.414007 171.022181 
L 86.178569 170.673634 
L 86.601015 170.673634 
L 78.97483 170.673634 
L 82.123339 170.673634 
L 80.230035 170.325086 
L 83.979532 170.325086 
L 77.90817 170.325086 
L 81.399659 170.325086 
L 79.826402 169.976539 
L 87.943621 169.976539 
L 88.508885 169.627991 
L 89.034534 169.627991 
L 82.707989 169.627991 
L 83.106915 169.279444 
L 82.36508 169.279444 
L 87.781171 169.279444 
L 84.289438 168.930896 
L 87.235227 168.930896 
L 84.179691 168.930896 
L 84.208615 168.930896 
L 84.758283 168.582348 
L 90.656032 168.582348 
L 87.543557 168.582348 
L 89.53404 168.233801 
L 91.712779 168.233801 
L 88.08325 168.233801 
L 91.371616 168.233801 
L 87.707358 167.885253 
L 92.954326 167.885253 
L 90.489959 167.885253 
L 91.394294 167.536706 
L 87.085853 167.536706 
L 96.102443 167.536706 
L 93.54792 167.536706 
L 91.733783 167.188158 
L 88.397667 167.188158 
L 93.339546 167.188158 
L 89.948508 166.839611 
L 90.342326 166.839611 
L 94.965732 166.839611 
L 93.064261 166.839611 
L 95.201544 166.491063 
L 90.904168 166.491063 
L 96.644069 166.491063 
L 93.486721 166.491063 
L 94.759222 166.142516 
L 93.895089 166.142516 
L 94.002694 166.142516 
L 94.552793 165.793968 
L 97.888756 165.793968 
L 97.347059 165.793968 
L 93.888391 165.445421 
L 99.815905 165.445421 
L 94.166529 165.445421 
L 97.959513 165.096873 
L 96.792417 165.096873 
L 96.55999 165.096873 
L 95.37834 164.748326 
L 100.383603 164.748326 
L 100.342428 164.399778 
L 96.439904 164.399778 
L 103.652054 164.399778 
L 102.656796 164.399778 
L 102.268867 164.05123 
L 101.022228 164.05123 
L 102.106202 164.05123 
L 101.685705 163.702683 
L 102.229508 163.702683 
L 102.02577 163.702683 
L 100.377527 163.354135 
L 99.596888 163.354135 
L 102.242247 163.354135 
L 101.232843 163.354135 
L 101.362046 163.005588 
L 97.607355 163.005588 
L 102.768141 163.005588 
L 99.959679 163.005588 
L 102.12501 162.65704 
L 104.257336 162.65704 
L 103.462684 162.65704 
L 104.581576 162.308493 
L 102.103348 162.308493 
L 105.406314 162.308493 
L 104.713429 161.959945 
L 103.990197 161.959945 
L 106.549444 161.959945 
L 106.579737 161.611398 
L 107.98501 161.611398 
L 104.116385 161.611398 
L 103.866211 161.26285 
L 103.875287 161.26285 
L 106.369552 161.26285 
L 108.60277 160.914303 
L 108.050151 160.914303 
L 105.479451 160.914303 
L 107.805899 160.914303 
L 105.349179 160.565755 
L 111.043852 160.565755 
L 107.115338 160.565755 
L 105.992709 160.217208 
L 106.346798 160.217208 
L 107.843337 160.217208 
L 106.921812 160.217208 
L 107.481885 159.86866 
L 111.076369 159.86866 
L 109.807437 159.520112 
L 110.116498 159.520112 
L 107.353117 159.520112 
L 106.673534 159.171565 
L 111.656797 159.171565 
L 112.007666 158.823017 
L 113.145693 158.823017 
L 111.288409 158.823017 
L 110.525952 158.47447 
L 112.56625 158.47447 
L 113.104426 158.125922 
L 112.334566 158.125922 
L 113.256478 158.125922 
L 113.580933 157.777375 
L 113.987104 157.777375 
L 113.88967 157.777375 
L 114.027566 157.428827 
L 114.496028 157.428827 
L 114.581335 157.08028 
L 115.135514 157.08028 
L 115.286051 156.731732 
L 115.877753 156.731732 
L 115.807061 156.383185 
L 115.910039 156.383185 
L 116.049471 156.383185 
L 116.236119 156.034637 
L 117.038162 156.034637 
L 117.330159 155.68609 
L 117.453815 155.68609 
L 117.65541 155.337542 
L 117.887201 155.337542 
L 118.038503 154.988994 
L 118.67643 154.988994 
L 118.827678 154.640447 
L 119.337078 154.640447 
L 119.565466 154.291899 
L 119.857298 154.291899 
L 120.141455 153.943352 
L 120.3926 153.943352 
L 120.5896 153.594804 
L 120.901251 153.594804 
L 121.176678 153.246257 
L 121.270408 153.246257 
L 121.303763 152.897709 
L 122.028245 152.897709 
L 122.450684 152.549162 
L 122.793002 152.549162 
L 122.813089 152.200614 
L 123.283757 152.200614 
L 123.335798 151.852067 
L 123.785193 151.852067 
L 123.997583 151.503519 
L 124.173151 151.503519 
L 124.378771 151.154972 
L 124.505972 151.154972 
L 124.548048 150.806424 
L 124.95237 150.806424 
L 125.049935 150.457876 
L 125.724621 150.457876 
L 125.788939 150.109329 
L 126.560307 150.109329 
L 126.784148 149.760781 
L 126.896901 149.760781 
L 126.860483 149.412234 
L 127.062038 149.412234 
L 127.288225 149.063686 
L 127.665485 149.063686 
L 127.784624 148.715139 
L 128.178446 148.715139 
L 128.49535 148.366591 
L 128.708954 148.366591 
L 129.055047 148.018044 
L 129.40759 148.018044 
L 129.68716 147.669496 
L 129.951501 147.669496 
L 130.409528 146.972401 
L 130.580927 146.972401 
L 130.703818 146.623854 
L 130.770138 146.623854 
L 130.934231 146.275306 
L 131.452921 146.275306 
L 131.524391 145.926758 
L 132.10732 145.926758 
L 132.1454 145.578211 
L 132.407807 145.578211 
L 132.573493 145.229663 
L 132.821198 145.229663 
L 132.840237 144.881116 
L 133.279121 144.881116 
L 133.517751 144.532568 
L 134.073628 144.532568 
L 134.242176 144.184021 
L 134.368985 144.184021 
L 134.567439 143.835473 
L 134.730995 143.835473 
L 134.888898 143.486926 
L 135.287942 143.486926 
L 135.757709 142.441283 
L 135.820809 142.441283 
L 135.91585 142.092736 
L 136.009818 142.092736 
L 136.03948 141.744188 
L 136.826398 141.744188 
L 137.020234 141.39564 
L 137.499693 141.39564 
L 137.672962 141.047093 
L 137.896254 141.047093 
L 138.133272 140.698545 
L 138.239416 140.698545 
L 138.420489 140.349998 
L 138.586869 140.349998 
L 138.902144 140.00145 
L 139.469023 139.304355 
L 139.95766 138.258713 
L 139.933973 137.910165 
L 140.019855 137.910165 
L 140.326287 137.561618 
L 140.30936 137.21307 
L 140.536801 137.21307 
L 141.218106 136.167427 
L 141.188957 135.81888 
L 141.361736 135.81888 
L 141.401845 135.470332 
L 141.604624 135.470332 
L 141.734685 135.121785 
L 141.932521 135.121785 
L 142.101447 134.773237 
L 142.383244 134.773237 
L 142.560227 134.42469 
L 143.199512 134.42469 
L 143.335337 134.076142 
L 143.548677 134.076142 
L 143.723781 133.727595 
L 144.151969 133.727595 
L 144.29999 133.379047 
L 144.608936 133.379047 
L 144.807702 133.0305 
L 145.204918 133.0305 
L 145.893532 131.984857 
L 145.981266 131.636309 
L 146.140426 131.636309 
L 146.441947 130.939214 
L 146.585966 130.939214 
L 146.764372 130.590667 
L 147.136947 130.590667 
L 147.255065 130.242119 
L 147.390975 130.242119 
L 147.533112 129.893572 
L 147.778021 129.545024 
L 147.910872 129.545024 
L 148.009329 129.196477 
L 148.358603 129.196477 
L 148.550635 128.847929 
L 148.840817 128.847929 
L 149.073358 128.499382 
L 149.120795 128.499382 
L 149.275472 128.150834 
L 149.420661 128.150834 
L 149.420466 128.150834 
L 149.585634 127.802286 
L 149.963547 127.802286 
L 150.210502 127.453739 
L 150.452078 127.453739 
L 151.469877 125.711001 
L 151.685521 125.711001 
L 151.883952 125.362454 
L 152.273493 125.362454 
L 152.539987 125.013906 
L 152.708675 125.013906 
L 152.997334 124.665359 
L 153.167627 124.665359 
L 153.316876 124.316811 
L 153.590103 124.316811 
L 153.707062 123.968264 
L 153.890592 123.968264 
L 154.316009 122.922621 
L 154.372371 122.574073 
L 154.475572 122.225526 
L 154.63346 122.225526 
L 154.605268 121.876978 
L 154.624146 121.876978 
L 154.898364 121.528431 
L 155.111358 121.528431 
L 155.294463 121.179883 
L 155.977625 121.179883 
L 156.081458 120.831336 
L 156.684639 120.831336 
L 157.134301 119.785693 
L 157.292369 119.785693 
L 157.427462 119.088598 
L 157.632544 119.088598 
L 158.048222 118.391503 
L 158.268939 118.391503 
L 158.408448 118.042955 
L 158.627124 118.042955 
L 158.729707 117.694408 
L 158.864647 117.694408 
L 159.143625 117.34586 
L 159.33939 117.34586 
L 159.378749 116.997313 
L 159.579778 116.997313 
L 159.678368 116.648765 
L 159.94288 116.648765 
L 160.15589 116.300218 
L 160.204563 115.95167 
L 160.347255 115.95167 
L 160.329772 115.603123 
L 160.449577 115.603123 
L 160.815362 114.906028 
L 160.966396 114.55748 
L 161.307036 114.55748 
L 161.46123 114.208932 
L 161.961215 114.208932 
L 162.241989 113.860385 
L 162.378713 113.860385 
L 162.513705 113.511837 
L 162.80245 113.511837 
L 162.85596 113.16329 
L 162.99091 113.16329 
L 163.095298 112.814742 
L 163.289656 112.814742 
L 163.369685 112.466195 
L 163.523597 112.466195 
L 163.713848 112.117647 
L 163.873202 112.117647 
L 164.097244 111.7691 
L 164.334106 111.420552 
L 164.459835 111.072005 
L 164.714653 110.37491 
L 164.985809 110.37491 
L 165.265517 110.026362 
L 165.524742 110.026362 
L 165.767213 109.677814 
L 165.964005 109.677814 
L 166.279241 108.980719 
L 166.370994 108.980719 
L 166.488708 108.632172 
L 166.857428 108.632172 
L 166.941828 108.283624 
L 167.251756 108.283624 
L 167.560707 107.935077 
L 167.880651 107.586529 
L 168.010739 107.586529 
L 168.282622 106.889434 
L 168.35324 106.889434 
L 168.870542 105.843792 
L 169.065482 105.843792 
L 169.25452 105.495244 
L 169.4067 105.495244 
L 169.797025 104.449601 
L 170.025371 104.449601 
L 170.113052 104.101054 
L 170.414713 104.101054 
L 170.874594 103.403959 
L 171.099777 103.403959 
L 171.45996 103.055411 
L 171.603648 103.055411 
L 171.855096 102.706864 
L 171.96906 102.706864 
L 172.077873 102.358316 
L 172.269968 102.009769 
L 172.628999 101.661221 
L 172.778714 101.661221 
L 173.350174 100.615578 
L 173.490399 100.267031 
L 173.635758 100.267031 
L 173.701196 99.569936 
L 173.809714 99.569936 
L 174.200646 98.872841 
L 174.383562 98.872841 
L 174.5505 98.524293 
L 174.899735 98.524293 
L 175.114228 98.175746 
L 175.34153 98.175746 
L 175.859141 97.478651 
L 176.010468 97.478651 
L 176.651867 96.08446 
L 176.849854 96.08446 
L 177.255063 94.69027 
L 177.174558 94.69027 
L 177.356157 94.341723 
L 177.577261 94.341723 
L 177.638226 93.993175 
L 177.847044 93.993175 
L 178.013189 93.644628 
L 178.211143 93.644628 
L 178.3514 93.29608 
L 178.512357 93.29608 
L 178.698341 92.947533 
L 178.833177 92.947533 
L 178.960539 92.598985 
L 179.129008 92.598985 
L 179.279578 92.250438 
L 179.350199 91.90189 
L 179.477413 91.90189 
L 179.640486 91.553343 
L 179.980989 91.553343 
L 180.755322 90.5077 
L 180.848235 90.5077 
L 181.100733 90.159152 
L 181.172903 90.159152 
L 181.237116 89.810605 
L 181.505816 89.810605 
L 181.564537 89.462057 
L 181.931767 89.462057 
L 182.222008 89.11351 
L 182.512047 89.11351 
L 182.755508 88.764962 
L 182.862586 88.764962 
L 183.834561 87.370772 
L 183.979988 87.370772 
L 184.061688 87.022225 
L 184.729517 85.628034 
L 184.821818 85.628034 
L 184.900453 85.279487 
L 185.127917 85.279487 
L 185.366123 84.930939 
L 185.544473 84.930939 
L 185.814176 84.582392 
L 185.937023 84.582392 
L 186.698445 83.536749 
L 186.926848 83.536749 
L 187.284541 82.839654 
L 187.516528 82.839654 
L 187.606625 82.491107 
L 187.731937 82.491107 
L 188.008927 81.794011 
L 187.971135 81.794011 
L 188.038183 81.794011 
L 188.280007 81.445464 
L 188.430257 81.445464 
L 188.596632 81.096916 
L 188.913168 81.096916 
L 188.997761 80.748369 
L 189.640281 80.748369 
L 189.790672 80.399821 
L 190.322771 80.399821 
L 190.458074 80.051274 
L 191.139245 80.051274 
L 191.332398 79.702726 
L 191.513885 79.702726 
L 191.706236 79.354179 
L 191.950642 79.354179 
L 192.044711 79.005631 
L 192.325267 79.005631 
L 192.400559 78.657084 
L 192.729922 78.657084 
L 193.224692 77.959989 
L 193.313796 77.959989 
L 193.494642 77.611441 
L 193.862817 77.611441 
L 194.000701 77.262893 
L 194.190975 76.914346 
L 194.468355 76.914346 
L 194.722845 76.565798 
L 194.878569 76.565798 
L 195.026342 76.217251 
L 195.407674 76.217251 
L 195.510515 75.868703 
L 195.956593 75.868703 
L 196.10101 75.520156 
L 200.109154 75.520156 
L 200.108294 75.171608 
L 200.211645 75.171608 
L 200.270696 75.171608 
L 200.414867 74.823061 
L 200.646375 74.125966 
L 201.603709 70.989038 
L 201.753209 70.989038 
L 201.901965 70.64049 
L 202.044499 70.64049 
L 202.204539 70.291943 
L 208.033002 70.291943 
L 208.221693 69.2463 
L 208.296929 69.2463 
L 208.68643 65.760825 
L 208.811129 65.760825 
L 208.958784 65.412277 
L 212.753866 65.412277 
L 212.596717 65.412277 
L 212.865694 65.06373 
L 212.839033 65.06373 
L 215.823689 65.06373 
L 215.738436 65.06373 
L 215.740479 64.715182 
L 215.647459 64.715182 
L 215.542102 64.366635 
L 215.562389 63.320992 
L 215.289268 61.229707 
L 215.450654 61.229707 
L 221.579121 61.229707 
L 221.484126 61.229707 
L 221.588383 60.881159 
L 221.551307 60.881159 
L 224.064861 60.881159 
L 221.545246 60.881159 
L 223.965441 60.881159 
L 223.726279 60.184064 
L 223.612783 59.138421 
L 223.05544 57.395684 
L 222.890085 57.047136 
L 222.952479 57.047136 
L 223.441411 57.047136 
L 212.288504 57.047136 
L 211.85475 57.395684 
L 199.96241 57.395684 
L 199.626435 57.744231 
L 192.450184 57.744231 
L 192.208929 58.092779 
L 192.298354 58.092779 
L 192.795688 59.486969 
L 193.291143 60.881159 
L 193.409232 60.881159 
L 193.266381 61.578254 
L 186.945367 61.578254 
L 186.765081 61.926802 
L 186.627825 61.926802 
L 186.609157 62.275349 
L 186.627714 62.275349 
L 186.72535 62.275349 
L 186.763506 62.623897 
L 186.902237 62.623897 
L 186.952452 62.972444 
L 187.417014 62.972444 
L 185.009399 62.972444 
L 184.549905 63.320992 
L 184.142331 63.320992 
L 183.988348 63.669539 
L 184.254655 64.018087 
L 184.416785 64.018087 
L 184.540532 64.366635 
L 179.876473 64.366635 
L 179.383358 64.715182 
L 179.141528 64.715182 
L 179.014772 65.06373 
L 178.884454 65.06373 
L 179.351625 66.45792 
L 179.504999 66.45792 
L 179.463836 66.806467 
L 179.713812 67.155015 
L 179.461998 67.503562 
L 178.619999 67.503562 
L 178.133006 67.85211 
L 175.72564 67.85211 
L 175.885101 67.85211 
L 176.093873 68.200657 
L 176.239101 68.200657 
L 176.457607 68.549205 
L 176.807978 68.549205 
L 175.143737 68.549205 
L 174.689213 68.897753 
L 173.590139 68.897753 
L 173.190929 69.2463 
L 172.971767 69.2463 
L 172.792095 69.943395 
L 172.99785 70.989038 
L 173.18308 70.989038 
L 173.407114 71.337585 
L 173.292216 72.03468 
L 173.233418 72.03468 
L 172.869314 72.383228 
L 171.799116 72.383228 
L 171.355286 72.731775 
L 170.623205 72.731775 
L 170.409274 73.080323 
L 170.093147 73.080323 
L 170.025451 73.428871 
L 170.127588 73.428871 
L 170.377271 73.777418 
L 170.578897 73.777418 
L 170.574407 74.125966 
L 170.712034 74.125966 
L 169.907709 74.125966 
L 169.514404 74.474513 
L 168.143349 74.474513 
L 167.664805 74.823061 
L 167.898378 75.868703 
L 168.121837 75.868703 
L 168.021585 76.565798 
L 167.979361 76.565798 
L 167.514031 77.262893 
L 167.297397 77.262893 
L 166.939341 77.611441 
L 166.674893 77.611441 
L 166.056473 78.308536 
L 165.697921 78.308536 
L 165.12055 79.354179 
L 165.041515 79.702726 
L 165.759039 80.748369 
L 165.638775 80.748369 
L 162.873159 80.748369 
L 162.638652 81.096916 
L 162.556258 81.096916 
L 162.550338 81.445464 
L 162.595526 81.445464 
L 162.966173 82.491107 
L 162.884889 82.491107 
L 162.698341 82.839654 
L 162.557772 83.188202 
L 162.300909 83.188202 
L 161.99499 83.536749 
L 161.602238 83.536749 
L 161.356234 83.885297 
L 161.015152 83.885297 
L 160.129362 84.582392 
L 159.87023 84.582392 
L 159.700301 85.628034 
L 160.000056 86.673677 
L 160.176572 86.673677 
L 160.198623 87.022225 
L 160.163696 87.022225 
L 159.982479 87.370772 
L 157.742177 87.370772 
L 157.543047 87.71932 
L 156.92851 87.71932 
L 157.134859 88.416415 
L 157.273251 88.764962 
L 157.435147 88.764962 
L 157.229763 89.810605 
L 156.707581 89.810605 
L 156.481712 90.159152 
L 156.131679 90.159152 
L 155.388371 90.856247 
L 155.046936 90.856247 
L 154.511764 91.553343 
L 154.376844 92.250438 
L 154.387965 93.993175 
L 154.342703 93.993175 
L 154.22048 94.341723 
L 153.894019 94.341723 
L 153.608565 94.69027 
L 152.972766 94.69027 
L 152.639548 95.038818 
L 152.218875 95.038818 
L 151.852074 95.387365 
L 151.625273 95.387365 
L 151.427367 95.735913 
L 151.406567 96.08446 
L 151.408498 96.08446 
L 151.76002 96.781556 
L 151.879872 96.781556 
L 152.078411 97.130103 
L 151.928495 97.130103 
L 151.813891 97.478651 
L 150.155247 97.478651 
L 149.813449 97.827198 
L 149.217859 97.827198 
L 149.004567 98.175746 
L 148.997381 98.872841 
L 149.100021 99.221388 
L 148.992517 100.267031 
L 148.700768 100.615578 
L 148.466115 100.615578 
L 148.297513 100.964126 
L 147.951349 101.312674 
L 147.642893 101.312674 
L 147.45279 101.661221 
L 146.715901 102.358316 
L 146.278932 103.055411 
L 145.912398 104.101054 
L 146.087015 104.798149 
L 146.265866 105.495244 
L 146.195298 105.843792 
L 146.009415 105.843792 
L 145.992278 106.192339 
L 145.520673 106.192339 
L 145.227331 106.540887 
L 144.272246 106.540887 
L 144.083477 106.889434 
L 143.629171 106.889434 
L 143.453585 107.237982 
L 143.590994 108.283624 
L 143.397276 108.283624 
L 142.86319 108.980719 
L 142.340442 109.677814 
L 142.07553 109.677814 
L 141.870724 110.026362 
L 141.867266 110.723457 
L 141.710062 110.723457 
L 141.153003 111.7691 
L 140.59537 112.814742 
L 140.151819 114.208932 
L 140.108177 114.208932 
L 139.962854 114.55748 
L 139.829387 114.55748 
L 139.571488 114.906028 
L 139.404176 114.906028 
L 139.097651 115.254575 
L 138.697716 115.254575 
L 138.452917 115.603123 
L 138.106835 115.603123 
L 138.037686 116.300218 
L 138.102376 116.300218 
L 138.130347 116.648765 
L 138.032437 116.648765 
L 137.961251 116.648765 
L 137.865068 116.997313 
L 137.410494 116.997313 
L 137.108153 117.34586 
L 136.692533 117.34586 
L 136.093579 118.042955 
L 135.996347 118.042955 
L 135.669295 118.74005 
L 135.64984 119.437146 
L 135.617085 119.437146 
L 135.375093 120.134241 
L 135.218993 120.134241 
L 134.809608 121.179883 
L 134.715468 121.179883 
L 134.593425 121.528431 
L 134.445926 121.528431 
L 133.908192 122.225526 
L 133.610379 122.225526 
L 133.365326 122.574073 
L 132.98876 122.574073 
L 132.736494 123.271168 
L 132.776607 123.271168 
L 132.816746 123.968264 
L 132.787947 123.968264 
L 132.704445 123.968264 
L 132.580419 124.316811 
L 132.090272 124.316811 
L 131.818933 124.665359 
L 131.275621 124.665359 
L 131.064439 125.013906 
L 130.844639 125.013906 
L 130.581434 125.362454 
L 130.260193 125.362454 
L 130.223119 125.711001 
L 129.914801 126.059549 
L 129.539039 128.499382 
L 129.439297 128.499382 
L 129.415368 128.847929 
L 129.014562 128.847929 
L 128.766653 129.196477 
L 127.914586 129.196477 
L 127.664025 129.545024 
L 127.237744 129.545024 
L 126.933943 130.242119 
L 126.971347 130.242119 
L 127.191652 130.939214 
L 127.331943 130.939214 
L 127.308327 131.287762 
L 126.820547 131.287762 
L 126.63687 131.636309 
L 125.873554 131.636309 
L 125.583677 131.984857 
L 124.994116 131.984857 
L 124.774429 132.333404 
L 124.4905 132.333404 
L 124.116662 133.0305 
L 124.052007 133.0305 
L 124.066928 133.727595 
L 123.990241 133.727595 
L 123.943602 134.773237 
L 123.989574 134.773237 
L 123.794383 135.470332 
L 123.364516 135.470332 
L 123.198633 135.81888 
L 122.717026 135.81888 
L 122.458336 136.167427 
L 121.811752 136.167427 
L 121.690708 136.515975 
L 121.502548 136.515975 
L 121.510068 136.515975 
L 121.278267 137.21307 
L 120.881395 137.21307 
L 120.807684 137.561618 
L 120.498461 137.561618 
L 119.645543 138.60726 
L 119.414605 139.304355 
L 119.283007 139.304355 
L 119.148038 139.652903 
L 118.787439 139.652903 
L 118.635883 140.00145 
L 118.418057 140.00145 
L 117.906181 140.698545 
L 117.769725 140.698545 
L 117.367261 142.441283 
L 117.329835 142.441283 
L 117.036857 142.789831 
L 116.921811 143.138378 
L 116.738215 143.138378 
L 116.415054 143.835473 
L 116.231205 143.835473 
L 116.056314 144.184021 
L 115.748707 144.184021 
L 115.352646 144.881116 
L 115.133192 145.229663 
L 115.226207 145.926758 
L 114.093755 145.926758 
L 113.880424 146.275306 
L 113.109023 146.275306 
L 112.90075 146.623854 
L 112.463864 147.320949 
L 112.549349 147.669496 
L 112.402679 147.669496 
L 112.293198 148.018044 
L 111.959776 148.715139 
L 111.50264 148.715139 
L 111.377782 149.063686 
L 110.672565 149.063686 
L 110.370852 149.412234 
L 110.068956 149.412234 
L 109.90007 149.760781 
L 109.739582 149.760781 
L 109.652043 150.109329 
L 109.660107 150.109329 
L 109.476085 150.109329 
L 109.296392 150.457876 
L 108.735289 150.457876 
L 108.526694 150.806424 
L 108.14864 150.806424 
L 107.933907 151.154972 
L 107.678679 151.154972 
L 107.540891 151.503519 
L 107.478021 151.503519 
L 107.428513 151.852067 
L 107.253667 152.200614 
L 107.074938 152.549162 
L 106.449422 152.549162 
L 106.381947 152.897709 
L 105.739121 152.897709 
L 105.606691 153.246257 
L 105.336909 153.246257 
L 105.133858 153.594804 
L 105.034206 153.594804 
L 104.816051 153.943352 
L 104.582385 153.943352 
L 104.626309 153.943352 
L 104.509039 154.291899 
L 104.188866 154.291899 
L 104.027448 154.640447 
L 103.637053 154.640447 
L 103.488935 154.988994 
L 102.879586 154.988994 
L 102.738012 155.337542 
L 102.421248 155.337542 
L 102.227945 155.68609 
L 102.183951 155.68609 
L 102.150581 156.034637 
L 101.733954 156.034637 
L 101.555571 156.383185 
L 101.277987 156.383185 
L 101.293544 156.383185 
L 101.063687 156.731732 
L 100.917832 156.731732 
L 100.898229 157.08028 
L 99.629149 157.08028 
L 99.46456 157.428827 
L 99.566335 157.428827 
L 99.156611 157.428827 
L 99.031544 157.777375 
L 98.697951 157.777375 
L 98.474389 158.125922 
L 98.223472 158.125922 
L 98.183033 158.47447 
L 97.752643 158.47447 
L 97.729708 158.823017 
L 97.338774 158.823017 
L 97.305519 159.171565 
L 97.780464 159.171565 
L 97.590316 159.520112 
L 95.739371 159.520112 
L 95.747571 159.86866 
L 95.892434 159.86866 
L 95.482906 159.86866 
L 95.149558 160.217208 
L 94.82541 160.217208 
L 94.888281 160.217208 
L 94.999724 160.565755 
L 94.609329 160.565755 
L 95.120408 160.914303 
L 95.50339 160.914303 
L 94.473861 160.914303 
L 94.733655 161.26285 
L 93.770289 161.26285 
L 94.020249 161.26285 
L 93.74834 161.611398 
L 92.324188 161.611398 
L 92.330953 161.959945 
L 92.50446 161.959945 
L 92.110832 161.959945 
L 92.170915 162.308493 
L 91.900924 162.308493 
L 90.96158 162.65704 
L 91.202179 162.65704 
L 91.353955 162.65704 
L 90.82828 162.65704 
L 90.304208 163.005588 
L 91.89658 163.005588 
L 91.777697 163.005588 
L 91.540414 163.354135 
L 89.725265 163.354135 
L 89.286866 163.702683 
L 86.308424 163.702683 
L 86.844515 163.702683 
L 88.812061 164.05123 
L 87.321584 164.05123 
L 93.116011 164.05123 
L 90.332352 164.399778 
L 88.945842 164.399778 
L 92.450658 164.399778 
L 89.193475 164.399778 
L 86.346656 164.748326 
L 85.413904 164.748326 
L 88.672132 164.748326 
L 89.855657 165.096873 
L 89.560111 165.096873 
L 91.926268 165.096873 
L 87.204914 165.096873 
L 86.056667 165.445421 
L 87.935016 165.445421 
L 84.256278 165.445421 
L 85.635609 165.445421 
L 85.418254 165.793968 
L 86.855409 165.793968 
L 84.557379 165.793968 
L 85.182706 166.142516 
L 83.68855 166.142516 
L 87.693813 166.142516 
L 89.775106 166.491063 
L 82.914477 166.491063 
L 85.115955 166.491063 
L 86.356447 166.839611 
L 80.258825 166.839611 
L 83.399372 166.839611 
L 81.473777 167.188158 
L 85.198107 167.188158 
L 82.842377 167.536706 
L 85.933124 167.536706 
L 83.72111 167.885253 
L 85.694325 167.885253 
L 82.036286 167.885253 
L 83.86779 168.233801 
L 75.081102 168.233801 
L 84.745942 168.233801 
L 77.040368 168.233801 
L 78.958919 168.582348 
L 82.918717 168.582348 
L 78.707153 168.582348 
L 79.993617 168.582348 
L 79.184835 168.930896 
L 80.942165 168.930896 
L 76.356991 168.930896 
L 77.208168 168.930896 
L 76.910666 169.279444 
L 79.981644 169.279444 
L 78.481253 169.279444 
L 77.691693 169.627991 
L 79.00735 169.627991 
L 72.650672 169.627991 
L 78.016189 169.627991 
L 76.441694 169.976539 
L 78.617287 169.976539 
L 75.062018 169.976539 
L 75.346863 170.325086 
L 77.915751 170.325086 
L 71.87384 170.325086 
L 73.152095 170.325086 
L 73.44039 170.673634 
L 75.119009 170.673634 
L 71.847092 170.673634 
L 73.65593 170.673634 
L 75.402051 171.022181 
L 80.579162 171.022181 
L 76.321146 171.022181 
L 77.689285 171.370729 
L 71.074912 171.370729 
L 79.424772 171.370729 
L 71.639987 171.370729 
L 73.332771 171.719276 
L 78.476928 171.719276 
L 72.634375 171.719276 
L 72.931985 171.719276 
L 70.537741 172.067824 
L 75.391555 172.067824 
L 68.322744 172.067824 
L 69.82456 172.067824 
L 69.588554 172.416371 
L 72.397057 172.416371 
L 67.459609 172.416371 
L 70.612121 172.416371 
L 71.410489 172.764919 
L 73.66023 172.764919 
L 67.925985 172.764919 
L 70.079297 173.113466 
L 74.98552 173.113466 
L 67.480609 173.113466 
L 70.172238 173.113466 
L 71.136772 173.462014 
L 67.108497 173.462014 
L 73.547815 173.462014 
L 71.923457 173.462014 
L 72.121192 173.810562 
L 63.051521 173.810562 
L 74.937648 173.810562 
L 70.65618 173.810562 
L 72.191753 174.159109 
L 66.701237 174.159109 
L 67.971593 174.159109 
L 69.316527 174.507657 
L 72.04964 174.507657 
L 63.221979 174.507657 
L 63.31139 174.856204 
L 69.484731 174.856204 
L 63.27303 174.856204 
L 66.843499 174.856204 
L 66.970022 175.204752 
L 60.796076 175.204752 
L 69.390797 175.204752 
L 65.242677 175.204752 
L 63.348223 175.553299 
L 69.45547 175.553299 
L 58.678866 175.553299 
L 65.241885 175.553299 
L 63.527333 175.901847 
L 66.449829 175.901847 
L 57.672552 175.901847 
L 64.283312 175.901847 
L 64.069619 176.250394 
L 56.323571 176.250394 
L 66.099396 176.250394 
L 58.781659 176.250394 
L 62.757704 176.598942 
L 58.400845 176.598942 
L 57.729962 176.947489 
L 69.580904 176.947489 
L 50.957202 176.947489 
L 57.988757 176.947489 
L 57.71386 177.296037 
L 55.065466 177.296037 
L 67.780834 177.296037 
L 64.412453 177.296037 
" clip-path="url(#p3553cfb6c1)" style="fill: none; stroke: #d62728; stroke-width: 1.5; stroke-linecap: square"/>
   </g>
   <g id="patch_3">
    <path d="M 41.727344 184.675938 
L 41.727344 22.318125 
" style="fill: none; stroke: #000000; stroke-width: 0.8; stroke-linejoin: miter; stroke-linecap: square"/>
   </g>
   <g id="patch_4">
    <path d="M 244.784219 184.675938 
L 244.784219 22.318125 
" style="fill: none; stroke: #000000; stroke-width: 0.8; stroke-linejoin: miter; stroke-linecap: square"/>
   </g>
   <g id="patch_5">
    <path d="M 41.727344 184.675938 
L 244.784219 184.675938 
" style="fill: none; stroke: #000000; stroke-width: 0.8; stroke-linejoin: miter; stroke-linecap: square"/>
   </g>
   <g id="patch_6">
    <path d="M 41.727344 22.318125 
L 244.784219 22.318125 
" style="fill: none; stroke: #000000; stroke-width: 0.8; stroke-linejoin: miter; stroke-linecap: square"/>
   </g>
   <g id="line2d_18">
    <path d="M 61.753577 173.461962 
L 72.738644 173.42216 
L 74.378645 172.665445 
L 89.860597 166.00724 
L 94.41182 163.930631 
L 101.947324 160.420544 
L 107.592738 157.566387 
L 113.971209 153.791607 
L 119.551048 149.849136 
L 125.795995 144.801054 
L 135.396234 136.583631 
L 145.711855 127.698509 
L 150.076559 123.509677 
L 153.348422 119.903016 
L 156.613693 115.839922 
L 162.028563 108.944838 
L 165.788958 104.651423 
L 172.679439 96.916765 
L 176.32638 92.535028 
L 178.386812 91.110853 
L 183.453064 87.509637 
L 191.740561 81.75065 
L 196.847391 78.459692 
L 202.584546 74.985589 
L 210.313373 70.515967 
L 216.488325 67.130358 
L 222.183062 64.21043 
L 228.521501 61.25183 
L 235.533859 58.108214 
L 235.554361 58.003082 
L 235.554338 58.003082 
L 235.533698 29.698026 
L 235.458196 32.991027 
L 235.399893 33.437134 
L 235.3279 33.382009 
L 235.194269 33.441895 
L 234.968305 33.515007 
L 234.441872 33.783147 
L 230.138355 35.375442 
L 226.455653 36.789056 
L 207.957104 44.045582 
L 202.57881 46.614391 
L 199.531634 48.247924 
L 194.082574 51.397319 
L 187.889486 55.389649 
L 179.91308 61.042981 
L 172.147455 66.706352 
L 165.246433 72.126646 
L 162.021336 74.898755 
L 158.235136 78.501995 
L 154.43051 82.5851 
L 144.069148 94.464462 
L 142.979762 96.142374 
L 141.347434 99.42217 
L 136.468458 109.707306 
L 132.699957 117.116642 
L 130.559964 120.932986 
L 128.431435 124.282878 
L 126.315714 127.247046 
L 125.788941 153.039669 
L 125.263074 133.78957 
L 124.738132 127.008562 
L 124.214136 126.790392 
L 122.648033 131.764285 
L 121.609075 133.401597 
L 116.989072 139.124273 
L 113.964506 142.686456 
L 111.481571 145.355725 
L 108.067724 148.650894 
L 103.794901 152.305254 
L 98.768892 156.07997 
L 92.72007 160.11358 
L 83.023867 166.14871 
L 74.945045 170.775525 
L 70.010856 173.405209 
L 69.332592 173.462009 
L 61.755736 173.461958 
L 61.755736 173.461958 
" clip-path="url(#p3553cfb6c1)" style="fill: none; stroke-dasharray: 5.55,2.4; stroke-dashoffset: 0; stroke: #1f77b4; stroke-width: 1.5"/>
   </g>
   <g id="text_11">
    <!-- (a) Static Hysteresis -->
    <g transform="translate(81.234531 16.318125) scale(0.12 -0.12)">
     <defs>
      <path id="DejaVuSerif-53" d="M 594 225 
L 594 1288 
L 953 1284 
Q 969 753 1261 498 
Q 1553 244 2150 244 
Q 2706 244 2998 464 
Q 3291 684 3291 1106 
Q 3291 1444 3114 1625 
Q 2938 1806 2369 1978 
L 1753 2163 
Q 1084 2366 811 2669 
Q 538 2972 538 3500 
Q 538 4094 959 4422 
Q 1381 4750 2144 4750 
Q 2469 4750 2856 4679 
Q 3244 4609 3681 4475 
L 3681 3481 
L 3328 3481 
Q 3275 3975 2998 4195 
Q 2722 4416 2156 4416 
Q 1663 4416 1405 4214 
Q 1147 4013 1147 3628 
Q 1147 3294 1340 3103 
Q 1534 2913 2163 2725 
L 2741 2553 
Q 3375 2363 3645 2067 
Q 3916 1772 3916 1275 
Q 3916 597 3481 253 
Q 3047 -91 2188 -91 
Q 1803 -91 1404 -12 
Q 1006 66 594 225 
z
" transform="scale(0.015625)"/>
      <path id="DejaVuSerif-63" d="M 3291 997 
Q 3169 466 2822 187 
Q 2475 -91 1925 -91 
Q 1200 -91 759 389 
Q 319 869 319 1663 
Q 319 2459 759 2936 
Q 1200 3413 1925 3413 
Q 2241 3413 2553 3339 
Q 2866 3266 3181 3116 
L 3181 2266 
L 2847 2266 
Q 2781 2703 2561 2903 
Q 2341 3103 1931 3103 
Q 1466 3103 1228 2742 
Q 991 2381 991 1663 
Q 991 944 1227 581 
Q 1463 219 1931 219 
Q 2303 219 2525 412 
Q 2747 606 2828 997 
L 3291 997 
z
" transform="scale(0.015625)"/>
      <path id="DejaVuSerif-48" d="M 353 0 
L 353 331 
L 947 331 
L 947 4331 
L 353 4331 
L 353 4666 
L 2175 4666 
L 2175 4331 
L 1581 4331 
L 1581 2719 
L 4000 2719 
L 4000 4331 
L 3406 4331 
L 3406 4666 
L 5228 4666 
L 5228 4331 
L 4634 4331 
L 4634 331 
L 5228 331 
L 5228 0 
L 3406 0 
L 3406 331 
L 4000 331 
L 4000 2338 
L 1581 2338 
L 1581 331 
L 2175 331 
L 2175 0 
L 353 0 
z
" transform="scale(0.015625)"/>
      <path id="DejaVuSerif-79" d="M 1381 -609 
L 1600 -56 
L 359 2988 
L -19 2988 
L -19 3322 
L 1509 3322 
L 1509 2988 
L 978 2988 
L 1913 703 
L 2847 2988 
L 2350 2988 
L 2350 3322 
L 3597 3322 
L 3597 2988 
L 3225 2988 
L 1703 -750 
Q 1547 -1138 1356 -1280 
Q 1166 -1422 819 -1422 
Q 672 -1422 517 -1397 
Q 363 -1372 206 -1325 
L 206 -691 
L 500 -691 
Q 519 -903 608 -995 
Q 697 -1088 884 -1088 
Q 1056 -1088 1161 -992 
Q 1266 -897 1381 -609 
z
" transform="scale(0.015625)"/>
     </defs>
     <use xlink:href="#DejaVuSerif-28"/>
     <use xlink:href="#DejaVuSerif-61" transform="translate(39.013672 0)"/>
     <use xlink:href="#DejaVuSerif-29" transform="translate(98.632812 0)"/>
     <use xlink:href="#DejaVuSerif-20" transform="translate(137.646484 0)"/>
     <use xlink:href="#DejaVuSerif-53" transform="translate(169.433594 0)"/>
     <use xlink:href="#DejaVuSerif-74" transform="translate(237.939453 0)"/>
     <use xlink:href="#DejaVuSerif-61" transform="translate(278.125 0)"/>
     <use xlink:href="#DejaVuSerif-74" transform="translate(337.744141 0)"/>
     <use xlink:href="#DejaVuSerif-69" transform="translate(377.929688 0)"/>
     <use xlink:href="#DejaVuSerif-63" transform="translate(409.912109 0)"/>
     <use xlink:href="#DejaVuSerif-20" transform="translate(465.917969 0)"/>
     <use xlink:href="#DejaVuSerif-48" transform="translate(497.705078 0)"/>
     <use xlink:href="#DejaVuSerif-79" transform="translate(584.912109 0)"/>
     <use xlink:href="#DejaVuSerif-73" transform="translate(641.40625 0)"/>
     <use xlink:href="#DejaVuSerif-74" transform="translate(692.724609 0)"/>
     <use xlink:href="#DejaVuSerif-65" transform="translate(732.910156 0)"/>
     <use xlink:href="#DejaVuSerif-72" transform="translate(792.089844 0)"/>
     <use xlink:href="#DejaVuSerif-65" transform="translate(839.892578 0)"/>
     <use xlink:href="#DejaVuSerif-73" transform="translate(899.072266 0)"/>
     <use xlink:href="#DejaVuSerif-69" transform="translate(950.390625 0)"/>
     <use xlink:href="#DejaVuSerif-73" transform="translate(982.373047 0)"/>
    </g>
   </g>
   <g id="legend_1">
    <g id="patch_7">
     <path d="M 144.14875 180.175938 
L 238.484219 180.175938 
Q 240.284219 180.175938 240.284219 178.375938 
L 240.284219 152.855313 
Q 240.284219 151.055313 238.484219 151.055313 
L 144.14875 151.055313 
Q 142.34875 151.055313 142.34875 152.855313 
L 142.34875 178.375938 
Q 142.34875 180.175938 144.14875 180.175938 
z
" style="fill: #ffffff; opacity: 0.8; stroke: #cccccc; stroke-linejoin: miter"/>
    </g>
    <g id="line2d_19">
     <path d="M 145.94875 158.343906 
L 154.94875 158.343906 
L 163.94875 158.343906 
" style="fill: none; stroke: #d62728; stroke-width: 1.5; stroke-linecap: square"/>
    </g>
    <g id="text_12">
     <!-- Real Robot -->
     <g transform="translate(171.14875 161.493906) scale(0.09 -0.09)">
      <defs>
       <path id="DejaVuSerif-52" d="M 3066 2316 
Q 3284 2256 3442 2114 
Q 3600 1972 3725 1716 
L 4403 331 
L 4972 331 
L 4972 0 
L 3872 0 
L 3144 1484 
Q 2934 1916 2759 2042 
Q 2584 2169 2278 2169 
L 1581 2169 
L 1581 331 
L 2241 331 
L 2241 0 
L 353 0 
L 353 331 
L 947 331 
L 947 4331 
L 353 4331 
L 353 4666 
L 2719 4666 
Q 3400 4666 3770 4341 
Q 4141 4016 4141 3419 
Q 4141 2938 3870 2661 
Q 3600 2384 3066 2316 
z
M 1581 2503 
L 2503 2503 
Q 2975 2503 3200 2726 
Q 3425 2950 3425 3419 
Q 3425 3888 3200 4109 
Q 2975 4331 2503 4331 
L 1581 4331 
L 1581 2503 
z
" transform="scale(0.015625)"/>
       <path id="DejaVuSerif-62" d="M 738 331 
L 738 4531 
L 184 4531 
L 184 4863 
L 1313 4863 
L 1313 2803 
Q 1481 3116 1742 3264 
Q 2003 3413 2388 3413 
Q 3000 3413 3387 2928 
Q 3775 2444 3775 1663 
Q 3775 881 3387 395 
Q 3000 -91 2388 -91 
Q 2003 -91 1742 57 
Q 1481 206 1313 519 
L 1313 0 
L 184 0 
L 184 331 
L 738 331 
z
M 1313 1497 
Q 1313 897 1542 583 
Q 1772 269 2209 269 
Q 2650 269 2876 622 
Q 3103 975 3103 1663 
Q 3103 2353 2876 2703 
Q 2650 3053 2209 3053 
Q 1772 3053 1542 2737 
Q 1313 2422 1313 1825 
L 1313 1497 
z
" transform="scale(0.015625)"/>
      </defs>
      <use xlink:href="#DejaVuSerif-52"/>
      <use xlink:href="#DejaVuSerif-65" transform="translate(75.292969 0)"/>
      <use xlink:href="#DejaVuSerif-61" transform="translate(134.472656 0)"/>
      <use xlink:href="#DejaVuSerif-6c" transform="translate(194.091797 0)"/>
      <use xlink:href="#DejaVuSerif-20" transform="translate(226.074219 0)"/>
      <use xlink:href="#DejaVuSerif-52" transform="translate(257.861328 0)"/>
      <use xlink:href="#DejaVuSerif-6f" transform="translate(333.154297 0)"/>
      <use xlink:href="#DejaVuSerif-62" transform="translate(393.359375 0)"/>
      <use xlink:href="#DejaVuSerif-6f" transform="translate(457.373047 0)"/>
      <use xlink:href="#DejaVuSerif-74" transform="translate(517.578125 0)"/>
     </g>
    </g>
    <g id="line2d_20">
     <path d="M 145.94875 171.554219 
L 154.94875 171.554219 
L 163.94875 171.554219 
" style="fill: none; stroke-dasharray: 5.55,2.4; stroke-dashoffset: 0; stroke: #1f77b4; stroke-width: 1.5"/>
    </g>
    <g id="text_13">
     <!-- Sim (Model B) -->
     <g transform="translate(171.14875 174.704219) scale(0.09 -0.09)">
      <defs>
       <path id="DejaVuSerif-6d" d="M 3316 2675 
Q 3481 3041 3739 3227 
Q 3997 3413 4341 3413 
Q 4863 3413 5119 3089 
Q 5375 2766 5375 2113 
L 5375 331 
L 5894 331 
L 5894 0 
L 4300 0 
L 4300 331 
L 4800 331 
L 4800 2047 
Q 4800 2556 4650 2772 
Q 4500 2988 4153 2988 
Q 3769 2988 3567 2697 
Q 3366 2406 3366 1850 
L 3366 331 
L 3866 331 
L 3866 0 
L 2291 0 
L 2291 331 
L 2791 331 
L 2791 2069 
Q 2791 2566 2641 2777 
Q 2491 2988 2144 2988 
Q 1759 2988 1557 2697 
Q 1356 2406 1356 1850 
L 1356 331 
L 1856 331 
L 1856 0 
L 263 0 
L 263 331 
L 781 331 
L 781 2994 
L 231 2994 
L 231 3322 
L 1356 3322 
L 1356 2731 
Q 1516 3063 1762 3238 
Q 2009 3413 2322 3413 
Q 2709 3413 2968 3220 
Q 3228 3028 3316 2675 
z
" transform="scale(0.015625)"/>
       <path id="DejaVuSerif-42" d="M 1581 331 
L 2516 331 
Q 3078 331 3337 575 
Q 3597 819 3597 1350 
Q 3597 1878 3339 2120 
Q 3081 2363 2516 2363 
L 1581 2363 
L 1581 331 
z
M 1581 2694 
L 2375 2694 
Q 2888 2694 3123 2891 
Q 3359 3088 3359 3513 
Q 3359 3941 3123 4136 
Q 2888 4331 2375 4331 
L 1581 4331 
L 1581 2694 
z
M 353 0 
L 353 331 
L 947 331 
L 947 4331 
L 353 4331 
L 353 4666 
L 2656 4666 
Q 3363 4666 3720 4377 
Q 4078 4088 4078 3513 
Q 4078 3097 3829 2850 
Q 3581 2603 3103 2547 
Q 3697 2472 4005 2167 
Q 4313 1863 4313 1350 
Q 4313 656 3875 328 
Q 3438 0 2509 0 
L 353 0 
z
" transform="scale(0.015625)"/>
      </defs>
      <use xlink:href="#DejaVuSerif-53"/>
      <use xlink:href="#DejaVuSerif-69" transform="translate(68.505859 0)"/>
      <use xlink:href="#DejaVuSerif-6d" transform="translate(100.488281 0)"/>
      <use xlink:href="#DejaVuSerif-20" transform="translate(195.3125 0)"/>
      <use xlink:href="#DejaVuSerif-28" transform="translate(227.099609 0)"/>
      <use xlink:href="#DejaVuSerif-4d" transform="translate(266.113281 0)"/>
      <use xlink:href="#DejaVuSerif-6f" transform="translate(368.505859 0)"/>
      <use xlink:href="#DejaVuSerif-64" transform="translate(428.710938 0)"/>
      <use xlink:href="#DejaVuSerif-65" transform="translate(492.724609 0)"/>
      <use xlink:href="#DejaVuSerif-6c" transform="translate(551.904297 0)"/>
      <use xlink:href="#DejaVuSerif-20" transform="translate(583.886719 0)"/>
      <use xlink:href="#DejaVuSerif-42" transform="translate(615.673828 0)"/>
      <use xlink:href="#DejaVuSerif-29" transform="translate(689.160156 0)"/>
     </g>
    </g>
   </g>
  </g>
  <g id="axes_2">
   <g id="patch_8">
    <path d="M 290.111562 184.675938 
L 493.168437 184.675938 
L 493.168437 22.318125 
L 290.111562 22.318125 
z
" style="fill: #ffffff"/>
   </g>
   <g id="line2d_21">
    <path d="M 305.152812 93.419379 
L 493.544469 93.419379 
L 493.544469 93.419379 
" clip-path="url(#p7f86d64416)" style="fill: none; stroke-dasharray: 1.5,2.475; stroke-dashoffset: 0; stroke: #000000; stroke-opacity: 0.5; stroke-width: 1.5"/>
   </g>
   <g id="matplotlib.axis_3">
    <g id="xtick_5">
     <g id="line2d_22">
      <path d="M 305.152812 184.675938 
L 305.152812 22.318125 
" clip-path="url(#p7f86d64416)" style="fill: none; stroke-dasharray: 2.96,1.28; stroke-dashoffset: 0; stroke: #b0b0b0; stroke-opacity: 0.4; stroke-width: 0.8"/>
     </g>
     <g id="line2d_23">
      <g>
       <use xlink:href="#m9c07bc051f" x="305.152812" y="184.675938" style="stroke: #000000; stroke-width: 0.8"/>
      </g>
     </g>
     <g id="text_14">
      <!-- 0.0 -->
      <g transform="translate(297.20125 199.274375) scale(0.1 -0.1)">
       <use xlink:href="#DejaVuSerif-30"/>
       <use xlink:href="#DejaVuSerif-2e" transform="translate(63.623047 0)"/>
       <use xlink:href="#DejaVuSerif-30" transform="translate(95.410156 0)"/>
      </g>
     </g>
    </g>
    <g id="xtick_6">
     <g id="line2d_24">
      <path d="M 342.755937 184.675938 
L 342.755937 22.318125 
" clip-path="url(#p7f86d64416)" style="fill: none; stroke-dasharray: 2.96,1.28; stroke-dashoffset: 0; stroke: #b0b0b0; stroke-opacity: 0.4; stroke-width: 0.8"/>
     </g>
     <g id="line2d_25">
      <g>
       <use xlink:href="#m9c07bc051f" x="342.755937" y="184.675938" style="stroke: #000000; stroke-width: 0.8"/>
      </g>
     </g>
     <g id="text_15">
      <!-- 0.5 -->
      <g transform="translate(334.804375 199.274375) scale(0.1 -0.1)">
       <defs>
        <path id="DejaVuSerif-35" d="M 3219 4666 
L 3219 4153 
L 1081 4153 
L 1081 2816 
Q 1244 2928 1461 2984 
Q 1678 3041 1947 3041 
Q 2703 3041 3140 2622 
Q 3578 2203 3578 1478 
Q 3578 738 3136 323 
Q 2694 -91 1894 -91 
Q 1572 -91 1234 -12 
Q 897 66 544 225 
L 544 1131 
L 897 1131 
Q 925 688 1179 453 
Q 1434 219 1894 219 
Q 2388 219 2653 544 
Q 2919 869 2919 1478 
Q 2919 2084 2655 2407 
Q 2391 2731 1894 2731 
Q 1613 2731 1398 2631 
Q 1184 2531 1019 2322 
L 750 2322 
L 750 4666 
L 3219 4666 
z
" transform="scale(0.015625)"/>
       </defs>
       <use xlink:href="#DejaVuSerif-30"/>
       <use xlink:href="#DejaVuSerif-2e" transform="translate(63.623047 0)"/>
       <use xlink:href="#DejaVuSerif-35" transform="translate(95.410156 0)"/>
      </g>
     </g>
    </g>
    <g id="xtick_7">
     <g id="line2d_26">
      <path d="M 380.359062 184.675938 
L 380.359062 22.318125 
" clip-path="url(#p7f86d64416)" style="fill: none; stroke-dasharray: 2.96,1.28; stroke-dashoffset: 0; stroke: #b0b0b0; stroke-opacity: 0.4; stroke-width: 0.8"/>
     </g>
     <g id="line2d_27">
      <g>
       <use xlink:href="#m9c07bc051f" x="380.359062" y="184.675938" style="stroke: #000000; stroke-width: 0.8"/>
      </g>
     </g>
     <g id="text_16">
      <!-- 1.0 -->
      <g transform="translate(372.4075 199.274375) scale(0.1 -0.1)">
       <defs>
        <path id="DejaVuSerif-31" d="M 909 0 
L 909 331 
L 1722 331 
L 1722 4213 
L 781 3603 
L 781 4013 
L 1919 4750 
L 2350 4750 
L 2350 331 
L 3163 331 
L 3163 0 
L 909 0 
z
" transform="scale(0.015625)"/>
       </defs>
       <use xlink:href="#DejaVuSerif-31"/>
       <use xlink:href="#DejaVuSerif-2e" transform="translate(63.623047 0)"/>
       <use xlink:href="#DejaVuSerif-30" transform="translate(95.410156 0)"/>
      </g>
     </g>
    </g>
    <g id="xtick_8">
     <g id="line2d_28">
      <path d="M 417.962187 184.675938 
L 417.962187 22.318125 
" clip-path="url(#p7f86d64416)" style="fill: none; stroke-dasharray: 2.96,1.28; stroke-dashoffset: 0; stroke: #b0b0b0; stroke-opacity: 0.4; stroke-width: 0.8"/>
     </g>
     <g id="line2d_29">
      <g>
       <use xlink:href="#m9c07bc051f" x="417.962187" y="184.675938" style="stroke: #000000; stroke-width: 0.8"/>
      </g>
     </g>
     <g id="text_17">
      <!-- 1.5 -->
      <g transform="translate(410.010625 199.274375) scale(0.1 -0.1)">
       <use xlink:href="#DejaVuSerif-31"/>
       <use xlink:href="#DejaVuSerif-2e" transform="translate(63.623047 0)"/>
       <use xlink:href="#DejaVuSerif-35" transform="translate(95.410156 0)"/>
      </g>
     </g>
    </g>
    <g id="xtick_9">
     <g id="line2d_30">
      <path d="M 455.565312 184.675938 
L 455.565312 22.318125 
" clip-path="url(#p7f86d64416)" style="fill: none; stroke-dasharray: 2.96,1.28; stroke-dashoffset: 0; stroke: #b0b0b0; stroke-opacity: 0.4; stroke-width: 0.8"/>
     </g>
     <g id="line2d_31">
      <g>
       <use xlink:href="#m9c07bc051f" x="455.565312" y="184.675938" style="stroke: #000000; stroke-width: 0.8"/>
      </g>
     </g>
     <g id="text_18">
      <!-- 2.0 -->
      <g transform="translate(447.61375 199.274375) scale(0.1 -0.1)">
       <use xlink:href="#DejaVuSerif-32"/>
       <use xlink:href="#DejaVuSerif-2e" transform="translate(63.623047 0)"/>
       <use xlink:href="#DejaVuSerif-30" transform="translate(95.410156 0)"/>
      </g>
     </g>
    </g>
    <g id="xtick_10">
     <g id="line2d_32">
      <path d="M 493.168437 184.675938 
L 493.168437 22.318125 
" clip-path="url(#p7f86d64416)" style="fill: none; stroke-dasharray: 2.96,1.28; stroke-dashoffset: 0; stroke: #b0b0b0; stroke-opacity: 0.4; stroke-width: 0.8"/>
     </g>
     <g id="line2d_33">
      <g>
       <use xlink:href="#m9c07bc051f" x="493.168437" y="184.675938" style="stroke: #000000; stroke-width: 0.8"/>
      </g>
     </g>
     <g id="text_19">
      <!-- 2.5 -->
      <g transform="translate(485.216875 199.274375) scale(0.1 -0.1)">
       <use xlink:href="#DejaVuSerif-32"/>
       <use xlink:href="#DejaVuSerif-2e" transform="translate(63.623047 0)"/>
       <use xlink:href="#DejaVuSerif-35" transform="translate(95.410156 0)"/>
      </g>
     </g>
    </g>
    <g id="text_20">
     <!-- Time (s) -->
     <g transform="translate(368.879453 213.712344) scale(0.11 -0.11)">
      <defs>
       <path id="DejaVuSerif-54" d="M 1222 0 
L 1222 331 
L 1819 331 
L 1819 4294 
L 447 4294 
L 447 3566 
L 63 3566 
L 63 4666 
L 4206 4666 
L 4206 3566 
L 3822 3566 
L 3822 4294 
L 2450 4294 
L 2450 331 
L 3047 331 
L 3047 0 
L 1222 0 
z
" transform="scale(0.015625)"/>
      </defs>
      <use xlink:href="#DejaVuSerif-54"/>
      <use xlink:href="#DejaVuSerif-69" transform="translate(66.699219 0)"/>
      <use xlink:href="#DejaVuSerif-6d" transform="translate(98.681641 0)"/>
      <use xlink:href="#DejaVuSerif-65" transform="translate(193.505859 0)"/>
      <use xlink:href="#DejaVuSerif-20" transform="translate(252.685547 0)"/>
      <use xlink:href="#DejaVuSerif-28" transform="translate(284.472656 0)"/>
      <use xlink:href="#DejaVuSerif-73" transform="translate(323.486328 0)"/>
      <use xlink:href="#DejaVuSerif-29" transform="translate(374.804688 0)"/>
     </g>
    </g>
   </g>
   <g id="matplotlib.axis_4">
    <g id="ytick_5">
     <g id="line2d_34">
      <path d="M 290.111562 170.615924 
L 493.168437 170.615924 
" clip-path="url(#p7f86d64416)" style="fill: none; stroke-dasharray: 2.96,1.28; stroke-dashoffset: 0; stroke: #b0b0b0; stroke-opacity: 0.4; stroke-width: 0.8"/>
     </g>
     <g id="line2d_35">
      <g>
       <use xlink:href="#m2588414061" x="290.111562" y="170.615924" style="stroke: #000000; stroke-width: 0.8"/>
      </g>
     </g>
     <g id="text_21">
      <!-- 0 -->
      <g transform="translate(276.749062 174.415142) scale(0.1 -0.1)">
       <use xlink:href="#DejaVuSerif-30"/>
      </g>
     </g>
    </g>
    <g id="ytick_6">
     <g id="line2d_36">
      <path d="M 290.111562 131.342142 
L 493.168437 131.342142 
" clip-path="url(#p7f86d64416)" style="fill: none; stroke-dasharray: 2.96,1.28; stroke-dashoffset: 0; stroke: #b0b0b0; stroke-opacity: 0.4; stroke-width: 0.8"/>
     </g>
     <g id="line2d_37">
      <g>
       <use xlink:href="#m2588414061" x="290.111562" y="131.342142" style="stroke: #000000; stroke-width: 0.8"/>
      </g>
     </g>
     <g id="text_22">
      <!-- 20 -->
      <g transform="translate(270.386562 135.141361) scale(0.1 -0.1)">
       <use xlink:href="#DejaVuSerif-32"/>
       <use xlink:href="#DejaVuSerif-30" transform="translate(63.623047 0)"/>
      </g>
     </g>
    </g>
    <g id="ytick_7">
     <g id="line2d_38">
      <path d="M 290.111562 92.068361 
L 493.168437 92.068361 
" clip-path="url(#p7f86d64416)" style="fill: none; stroke-dasharray: 2.96,1.28; stroke-dashoffset: 0; stroke: #b0b0b0; stroke-opacity: 0.4; stroke-width: 0.8"/>
     </g>
     <g id="line2d_39">
      <g>
       <use xlink:href="#m2588414061" x="290.111562" y="92.068361" style="stroke: #000000; stroke-width: 0.8"/>
      </g>
     </g>
     <g id="text_23">
      <!-- 40 -->
      <g transform="translate(270.386562 95.86758) scale(0.1 -0.1)">
       <use xlink:href="#DejaVuSerif-34"/>
       <use xlink:href="#DejaVuSerif-30" transform="translate(63.623047 0)"/>
      </g>
     </g>
    </g>
    <g id="ytick_8">
     <g id="line2d_40">
      <path d="M 290.111562 52.794579 
L 493.168437 52.794579 
" clip-path="url(#p7f86d64416)" style="fill: none; stroke-dasharray: 2.96,1.28; stroke-dashoffset: 0; stroke: #b0b0b0; stroke-opacity: 0.4; stroke-width: 0.8"/>
     </g>
     <g id="line2d_41">
      <g>
       <use xlink:href="#m2588414061" x="290.111562" y="52.794579" style="stroke: #000000; stroke-width: 0.8"/>
      </g>
     </g>
     <g id="text_24">
      <!-- 60 -->
      <g transform="translate(270.386562 56.593798) scale(0.1 -0.1)">
       <use xlink:href="#DejaVuSerif-36"/>
       <use xlink:href="#DejaVuSerif-30" transform="translate(63.623047 0)"/>
      </g>
     </g>
    </g>
    <g id="text_25">
     <!-- Joint Angle (deg) -->
     <g transform="translate(263.9425 150.659531) rotate(-90) scale(0.11 -0.11)">
      <use xlink:href="#DejaVuSerif-4a"/>
      <use xlink:href="#DejaVuSerif-6f" transform="translate(40.087891 0)"/>
      <use xlink:href="#DejaVuSerif-69" transform="translate(100.292969 0)"/>
      <use xlink:href="#DejaVuSerif-6e" transform="translate(132.275391 0)"/>
      <use xlink:href="#DejaVuSerif-74" transform="translate(196.679688 0)"/>
      <use xlink:href="#DejaVuSerif-20" transform="translate(236.865234 0)"/>
      <use xlink:href="#DejaVuSerif-41" transform="translate(268.652344 0)"/>
      <use xlink:href="#DejaVuSerif-6e" transform="translate(340.869141 0)"/>
      <use xlink:href="#DejaVuSerif-67" transform="translate(405.273438 0)"/>
      <use xlink:href="#DejaVuSerif-6c" transform="translate(469.287109 0)"/>
      <use xlink:href="#DejaVuSerif-65" transform="translate(501.269531 0)"/>
      <use xlink:href="#DejaVuSerif-20" transform="translate(560.449219 0)"/>
      <use xlink:href="#DejaVuSerif-28" transform="translate(592.236328 0)"/>
      <use xlink:href="#DejaVuSerif-64" transform="translate(631.25 0)"/>
      <use xlink:href="#DejaVuSerif-65" transform="translate(695.263672 0)"/>
      <use xlink:href="#DejaVuSerif-67" transform="translate(754.443359 0)"/>
      <use xlink:href="#DejaVuSerif-29" transform="translate(818.457031 0)"/>
     </g>
    </g>
   </g>
   <g id="line2d_42">
    <path d="M 305.152812 174.857492 
L 310.793281 174.857492 
L 312.297406 173.443636 
L 313.4255 170.26246 
L 314.177562 167.081283 
L 314.553594 165.313963 
L 316.43375 152.235794 
L 317.561844 141.985337 
L 322.826281 93.207301 
L 323.954375 84.3707 
L 325.4585 74.827171 
L 327.338656 66.344034 
L 328.842781 62.102466 
L 329.218812 61.395538 
L 329.594844 61.042074 
L 329.970875 60.335145 
L 330.722937 59.628217 
L 331.098969 59.628217 
L 331.475 59.274753 
L 333.355156 59.274753 
L 333.731187 59.628217 
L 335.235312 59.628217 
L 335.611344 59.274753 
L 336.739437 59.274753 
L 337.4915 58.567825 
L 337.867531 58.567825 
L 339.371656 57.153969 
L 339.747687 56.447041 
L 340.123719 56.093577 
L 340.49975 55.386649 
L 340.875781 55.033185 
L 341.251812 54.326257 
L 341.627844 53.972793 
L 342.003875 53.265865 
L 342.379906 52.912401 
L 342.755937 52.205473 
L 343.131969 51.852009 
L 343.508 51.145081 
L 344.636094 50.084688 
L 345.012125 50.084688 
L 345.388156 49.731224 
L 345.764187 49.731224 
L 346.140219 49.37776 
L 348.020375 49.37776 
L 348.396406 49.731224 
L 349.900531 49.731224 
L 350.276562 49.37776 
L 425.106781 49.37776 
L 425.482812 49.024296 
L 426.234875 49.024296 
L 427.362969 47.963904 
L 427.739 47.256976 
L 428.491062 46.550048 
L 428.867094 45.84312 
L 429.243125 45.489656 
L 429.619156 44.782728 
L 430.74725 43.722336 
L 431.123281 43.722336 
L 431.499312 43.368872 
L 433.379469 43.368872 
L 433.7555 43.722336 
L 435.259625 43.722336 
L 435.635656 43.368872 
L 493.544469 43.368872 
L 493.544469 43.368872 
" clip-path="url(#p7f86d64416)" style="fill: none; stroke: #d62728; stroke-width: 1.5; stroke-linecap: square"/>
   </g>
   <g id="patch_9">
    <path d="M 290.111562 184.675938 
L 290.111562 22.318125 
" style="fill: none; stroke: #000000; stroke-width: 0.8; stroke-linejoin: miter; stroke-linecap: square"/>
   </g>
   <g id="patch_10">
    <path d="M 493.168437 184.675938 
L 493.168437 22.318125 
" style="fill: none; stroke: #000000; stroke-width: 0.8; stroke-linejoin: miter; stroke-linecap: square"/>
   </g>
   <g id="patch_11">
    <path d="M 290.111562 184.675938 
L 493.168437 184.675938 
" style="fill: none; stroke: #000000; stroke-width: 0.8; stroke-linejoin: miter; stroke-linecap: square"/>
   </g>
   <g id="patch_12">
    <path d="M 290.111562 22.318125 
L 493.168437 22.318125 
" style="fill: none; stroke: #000000; stroke-width: 0.8; stroke-linejoin: miter; stroke-linecap: square"/>
   </g>
   <g id="line2d_43">
    <path d="M 305.152812 170.615871 
L 306.656937 170.615871 
L 308.161062 170.615903 
L 309.665187 166.678235 
L 311.169312 154.569149 
L 312.673437 141.175226 
L 314.177562 128.156719 
L 315.681687 115.799198 
L 317.185812 103.798612 
L 318.689937 92.231605 
L 320.194062 81.053516 
L 321.698187 70.106744 
L 323.202312 59.69528 
L 324.706437 49.708766 
L 326.210562 42.010107 
L 327.714687 39.3762 
L 329.218812 39.499124 
L 330.722937 39.763227 
L 332.227062 39.437655 
L 333.731187 38.850958 
L 335.235312 38.354848 
L 336.739437 38.033501 
L 338.243562 37.832879 
L 339.747687 37.676061 
L 341.251812 37.531369 
L 342.755937 37.401966 
L 344.260062 37.295552 
L 345.764187 37.212208 
L 347.268312 37.1509 
L 348.772437 37.113962 
L 350.276562 37.081853 
L 351.780687 37.044044 
L 353.284812 37.008568 
L 354.788937 36.979825 
L 356.293062 36.958567 
L 357.797187 36.941841 
L 359.301312 36.940218 
L 360.805437 36.940165 
L 362.309562 36.93995 
L 363.813687 36.939736 
L 365.317812 36.937067 
L 366.821937 36.862226 
L 368.326062 36.722066 
L 369.830187 36.635261 
L 371.334312 36.628005 
L 372.838437 36.628005 
L 374.342562 36.628005 
L 375.846687 36.628005 
L 377.350812 36.628005 
L 378.854937 36.628005 
L 380.359062 36.628005 
L 381.863187 36.628005 
L 383.367312 36.628005 
L 384.871437 36.628005 
L 386.375562 36.628005 
L 387.879687 36.628005 
L 389.383812 36.628005 
L 390.887937 36.628005 
L 392.392062 36.628005 
L 393.896187 36.628005 
L 395.400312 36.628005 
L 396.904437 36.628005 
L 398.408563 36.628005 
L 399.912687 36.628005 
L 401.416812 36.628005 
L 402.920937 36.628005 
L 404.425062 36.628005 
L 405.929188 36.628005 
L 407.433312 36.628005 
L 408.937437 36.628005 
L 410.441562 36.628005 
L 411.945687 36.628005 
L 413.449813 36.628005 
L 414.953937 36.628005 
L 416.458062 36.628005 
L 417.962187 36.628005 
L 419.466312 36.628005 
L 420.970438 36.628005 
L 422.474562 36.628005 
L 423.978687 36.628005 
L 425.482813 36.628005 
L 426.986938 36.628005 
L 428.491062 36.628005 
L 429.995187 36.628005 
L 431.499312 36.628005 
L 433.003438 36.628005 
L 434.507563 36.628005 
L 436.011687 36.628005 
L 437.515813 36.628005 
L 439.019937 36.628005 
L 440.524063 36.628005 
L 442.028187 36.628005 
L 443.532312 36.628005 
L 445.036437 36.628005 
L 446.540562 36.628005 
L 448.044688 36.628005 
L 449.548813 36.628005 
L 451.052937 36.628005 
L 452.557063 36.628005 
L 454.061188 36.628005 
L 455.565313 36.628005 
L 457.069438 36.628005 
L 458.573562 36.628005 
L 460.077688 36.628005 
L 461.581813 36.628005 
L 463.085938 36.628005 
L 464.590062 36.628005 
L 466.094187 36.628005 
L 467.598313 36.628005 
L 469.102438 36.628005 
L 470.606562 36.628005 
L 472.110688 36.628005 
L 473.614813 36.628005 
L 475.118938 36.628005 
L 476.623063 36.628005 
L 478.127188 36.628005 
L 479.631313 36.628005 
L 481.135438 36.628005 
L 482.639563 36.628005 
L 484.143688 36.628005 
L 485.647813 36.628005 
L 487.151938 36.628005 
L 488.656063 36.628005 
L 490.160188 36.628005 
L 491.664313 36.628005 
L 493.168438 36.628005 
" clip-path="url(#p7f86d64416)" style="fill: none; stroke-dasharray: 5.55,2.4; stroke-dashoffset: 0; stroke: #1f77b4; stroke-width: 1.5"/>
   </g>
   <g id="text_26">
    <!-- (b) Step Response -->
    <g transform="translate(336.294687 16.318125) scale(0.12 -0.12)">
     <defs>
      <path id="DejaVuSerif-70" d="M 1313 1825 
L 1313 1497 
Q 1313 897 1542 583 
Q 1772 269 2209 269 
Q 2650 269 2876 622 
Q 3103 975 3103 1663 
Q 3103 2353 2876 2703 
Q 2650 3053 2209 3053 
Q 1772 3053 1542 2737 
Q 1313 2422 1313 1825 
z
M 738 2988 
L 184 2988 
L 184 3322 
L 1313 3322 
L 1313 2803 
Q 1481 3116 1742 3264 
Q 2003 3413 2388 3413 
Q 3000 3413 3387 2928 
Q 3775 2444 3775 1663 
Q 3775 881 3387 395 
Q 3000 -91 2388 -91 
Q 2003 -91 1742 57 
Q 1481 206 1313 519 
L 1313 -997 
L 1856 -997 
L 1856 -1331 
L 184 -1331 
L 184 -997 
L 738 -997 
L 738 2988 
z
" transform="scale(0.015625)"/>
     </defs>
     <use xlink:href="#DejaVuSerif-28"/>
     <use xlink:href="#DejaVuSerif-62" transform="translate(39.013672 0)"/>
     <use xlink:href="#DejaVuSerif-29" transform="translate(103.027344 0)"/>
     <use xlink:href="#DejaVuSerif-20" transform="translate(142.041016 0)"/>
     <use xlink:href="#DejaVuSerif-53" transform="translate(173.828125 0)"/>
     <use xlink:href="#DejaVuSerif-74" transform="translate(242.333984 0)"/>
     <use xlink:href="#DejaVuSerif-65" transform="translate(282.519531 0)"/>
     <use xlink:href="#DejaVuSerif-70" transform="translate(341.699219 0)"/>
     <use xlink:href="#DejaVuSerif-20" transform="translate(405.712891 0)"/>
     <use xlink:href="#DejaVuSerif-52" transform="translate(437.5 0)"/>
     <use xlink:href="#DejaVuSerif-65" transform="translate(512.792969 0)"/>
     <use xlink:href="#DejaVuSerif-73" transform="translate(571.972656 0)"/>
     <use xlink:href="#DejaVuSerif-70" transform="translate(623.291016 0)"/>
     <use xlink:href="#DejaVuSerif-6f" transform="translate(687.304688 0)"/>
     <use xlink:href="#DejaVuSerif-6e" transform="translate(747.509766 0)"/>
     <use xlink:href="#DejaVuSerif-73" transform="translate(811.914062 0)"/>
     <use xlink:href="#DejaVuSerif-65" transform="translate(863.232422 0)"/>
    </g>
   </g>
   <g id="legend_2">
    <g id="patch_13">
     <path d="M 384.38375 180.175938 
L 486.868437 180.175938 
Q 488.668437 180.175938 488.668437 178.375938 
L 488.668437 139.645 
Q 488.668437 137.845 486.868437 137.845 
L 384.38375 137.845 
Q 382.58375 137.845 382.58375 139.645 
L 382.58375 178.375938 
Q 382.58375 180.175938 384.38375 180.175938 
z
" style="fill: #ffffff; opacity: 0.8; stroke: #cccccc; stroke-linejoin: miter"/>
    </g>
    <g id="line2d_44">
     <path d="M 386.18375 145.133594 
L 395.18375 145.133594 
L 404.18375 145.133594 
" style="fill: none; stroke: #d62728; stroke-width: 1.5; stroke-linecap: square"/>
    </g>
    <g id="text_27">
     <!-- Real Robot -->
     <g transform="translate(411.38375 148.283594) scale(0.09 -0.09)">
      <use xlink:href="#DejaVuSerif-52"/>
      <use xlink:href="#DejaVuSerif-65" transform="translate(75.292969 0)"/>
      <use xlink:href="#DejaVuSerif-61" transform="translate(134.472656 0)"/>
      <use xlink:href="#DejaVuSerif-6c" transform="translate(194.091797 0)"/>
      <use xlink:href="#DejaVuSerif-20" transform="translate(226.074219 0)"/>
      <use xlink:href="#DejaVuSerif-52" transform="translate(257.861328 0)"/>
      <use xlink:href="#DejaVuSerif-6f" transform="translate(333.154297 0)"/>
      <use xlink:href="#DejaVuSerif-62" transform="translate(393.359375 0)"/>
      <use xlink:href="#DejaVuSerif-6f" transform="translate(457.373047 0)"/>
      <use xlink:href="#DejaVuSerif-74" transform="translate(517.578125 0)"/>
     </g>
    </g>
    <g id="line2d_45">
     <path d="M 386.18375 158.343906 
L 395.18375 158.343906 
L 404.18375 158.343906 
" style="fill: none; stroke-dasharray: 5.55,2.4; stroke-dashoffset: 0; stroke: #1f77b4; stroke-width: 1.5"/>
    </g>
    <g id="text_28">
     <!-- Sim (Model B) -->
     <g transform="translate(411.38375 161.493906) scale(0.09 -0.09)">
      <use xlink:href="#DejaVuSerif-53"/>
      <use xlink:href="#DejaVuSerif-69" transform="translate(68.505859 0)"/>
      <use xlink:href="#DejaVuSerif-6d" transform="translate(100.488281 0)"/>
      <use xlink:href="#DejaVuSerif-20" transform="translate(195.3125 0)"/>
      <use xlink:href="#DejaVuSerif-28" transform="translate(227.099609 0)"/>
      <use xlink:href="#DejaVuSerif-4d" transform="translate(266.113281 0)"/>
      <use xlink:href="#DejaVuSerif-6f" transform="translate(368.505859 0)"/>
      <use xlink:href="#DejaVuSerif-64" transform="translate(428.710938 0)"/>
      <use xlink:href="#DejaVuSerif-65" transform="translate(492.724609 0)"/>
      <use xlink:href="#DejaVuSerif-6c" transform="translate(551.904297 0)"/>
      <use xlink:href="#DejaVuSerif-20" transform="translate(583.886719 0)"/>
      <use xlink:href="#DejaVuSerif-42" transform="translate(615.673828 0)"/>
      <use xlink:href="#DejaVuSerif-29" transform="translate(689.160156 0)"/>
     </g>
    </g>
    <g id="line2d_46">
     <path d="M 386.18375 171.554219 
L 395.18375 171.554219 
L 404.18375 171.554219 
" style="fill: none; stroke-dasharray: 1.5,2.475; stroke-dashoffset: 0; stroke: #000000; stroke-opacity: 0.5; stroke-width: 1.5"/>
    </g>
    <g id="text_29">
     <!-- Command Input -->
     <g transform="translate(411.38375 174.704219) scale(0.09 -0.09)">
      <defs>
       <path id="DejaVuSerif-43" d="M 4513 1234 
Q 4306 581 3820 245 
Q 3334 -91 2591 -91 
Q 2134 -91 1743 65 
Q 1353 222 1050 525 
Q 700 875 529 1320 
Q 359 1766 359 2328 
Q 359 3416 987 4083 
Q 1616 4750 2644 4750 
Q 3025 4750 3456 4650 
Q 3888 4550 4384 4347 
L 4384 3272 
L 4031 3272 
Q 3916 3859 3567 4137 
Q 3219 4416 2591 4416 
Q 1844 4416 1459 3886 
Q 1075 3356 1075 2328 
Q 1075 1303 1459 773 
Q 1844 244 2591 244 
Q 3113 244 3450 492 
Q 3788 741 3938 1234 
L 4513 1234 
z
" transform="scale(0.015625)"/>
       <path id="DejaVuSerif-49" d="M 1581 331 
L 2175 331 
L 2175 0 
L 353 0 
L 353 331 
L 947 331 
L 947 4331 
L 353 4331 
L 353 4666 
L 2175 4666 
L 2175 4331 
L 1581 4331 
L 1581 331 
z
" transform="scale(0.015625)"/>
      </defs>
      <use xlink:href="#DejaVuSerif-43"/>
      <use xlink:href="#DejaVuSerif-6f" transform="translate(76.513672 0)"/>
      <use xlink:href="#DejaVuSerif-6d" transform="translate(136.71875 0)"/>
      <use xlink:href="#DejaVuSerif-6d" transform="translate(231.542969 0)"/>
      <use xlink:href="#DejaVuSerif-61" transform="translate(326.367188 0)"/>
      <use xlink:href="#DejaVuSerif-6e" transform="translate(385.986328 0)"/>
      <use xlink:href="#DejaVuSerif-64" transform="translate(450.390625 0)"/>
      <use xlink:href="#DejaVuSerif-20" transform="translate(514.404297 0)"/>
      <use xlink:href="#DejaVuSerif-49" transform="translate(546.191406 0)"/>
      <use xlink:href="#DejaVuSerif-6e" transform="translate(585.693359 0)"/>
      <use xlink:href="#DejaVuSerif-70" transform="translate(650.097656 0)"/>
      <use xlink:href="#DejaVuSerif-75" transform="translate(714.111328 0)"/>
      <use xlink:href="#DejaVuSerif-74" transform="translate(778.515625 0)"/>
     </g>
    </g>
   </g>
  </g>
 </g>
 <defs>
  <clipPath id="p3553cfb6c1">
   <rect x="41.727344" y="22.318125" width="203.056875" height="162.357812"/>
  </clipPath>
  <clipPath id="p7f86d64416">
   <rect x="290.111562" y="22.318125" width="203.056875" height="162.357812"/>
  </clipPath>
 </defs>
</svg>
